<svg width="40" height="40" viewBox="0 0 40 40" fill="none" xmlns="http://www.w3.org/2000/svg">
<path d="M20.2665 31.822C26.6484 31.822 31.822 26.6484 31.822 20.2665C31.822 13.8845 26.6484 8.71094 20.2665 8.71094C13.8845 8.71094 8.71094 13.8845 8.71094 20.2665C8.71094 26.6484 13.8845 31.822 20.2665 31.822Z" stroke="black" stroke-width="2" stroke-miterlimit="10" stroke-linecap="round" stroke-linejoin="round"/>
<path d="M21.7238 24.3457L17.6562 20.2666L21.7238 16.1875" stroke="black" stroke-width="2" stroke-linecap="round" stroke-linejoin="round"/>
<path fill-rule="evenodd" clip-rule="evenodd" d="M20 38.9333C30.4566 38.9333 38.9333 30.4566 38.9333 20C38.9333 9.54341 30.4566 1.06667 20 1.06667C9.54341 1.06667 1.06667 9.54341 1.06667 20C1.06667 30.4566 9.54341 38.9333 20 38.9333ZM20 40C31.0457 40 40 31.0457 40 20C40 8.95431 31.0457 0 20 0C8.95431 0 0 8.95431 0 20C0 31.0457 8.95431 40 20 40Z" fill="black"/>
</svg>
