<svg width="40" height="40" viewBox="0 0 40 40" fill="none" xmlns="http://www.w3.org/2000/svg">
<path d="M20.2667 31.8222C26.6486 31.8222 31.8222 26.6486 31.8222 20.2667C31.8222 13.8847 26.6486 8.71112 20.2667 8.71112C13.8847 8.71112 8.71112 13.8847 8.71112 20.2667C8.71112 26.6486 13.8847 31.8222 20.2667 31.8222Z" stroke="#1A407A" stroke-width="2" stroke-miterlimit="10" stroke-linecap="round" stroke-linejoin="round"/>
<path d="M21.7227 24.3458L17.6552 20.2667L21.7227 16.1876" stroke="#1A407A" stroke-width="2" stroke-linecap="round" stroke-linejoin="round"/>
<path fill-rule="evenodd" clip-rule="evenodd" d="M20 38.9333C30.4566 38.9333 38.9333 30.4566 38.9333 20C38.9333 9.54341 30.4566 1.06667 20 1.06667C9.54341 1.06667 1.06667 9.54341 1.06667 20C1.06667 30.4566 9.54341 38.9333 20 38.9333ZM20 40C31.0457 40 40 31.0457 40 20C40 8.95431 31.0457 0 20 0C8.95431 0 0 8.95431 0 20C0 31.0457 8.95431 40 20 40Z" fill="#1A407A"/>
</svg>
