<svg width="40" height="33" viewBox="0 0 40 33" fill="none" xmlns="http://www.w3.org/2000/svg">
<path d="M40 8.26368C39.6647 9.20988 39.4747 10.1944 39.2225 11.1655C38.7408 13.0102 38.2777 14.8591 37.8075 16.7058C37.7244 17.0302 37.5708 17.2831 37.1846 17.28C36.8638 17.28 36.6925 17.0883 36.6063 16.8012C36.5586 16.6416 36.6344 16.4903 36.6717 16.3473C37.3493 13.6769 38.0314 11.0073 38.7179 8.3383C38.9318 7.50196 38.746 7.26256 37.8656 7.26256H18.2145C17.5438 7.26256 17.2802 7.0926 17.2802 6.66977C17.2874 6.26662 17.5584 6.09562 18.1958 6.09562C24.7071 6.09562 31.2183 6.11221 37.7286 6.08008C38.8093 6.08008 39.5796 6.39098 39.9969 7.41387L40 8.26368Z" fill="#01040B"/>
<path d="M13.1569 28.5172C12.6339 28.427 12.111 28.3544 11.6101 28.1479C9.77672 27.3864 8.59389 25.4039 8.87627 23.5355C9.19838 21.4014 10.7954 19.8432 12.8808 19.6513C13.1673 19.6254 13.2457 19.561 13.1673 19.2622C11.8433 14.1961 10.5294 9.12578 9.22557 4.05131C9.14923 3.75668 9.01641 3.68095 8.74344 3.7017C8.52191 3.71415 8.29984 3.71415 8.0783 3.7017C7.68611 3.68821 7.31588 3.69132 6.98331 3.97454C6.75218 4.17062 6.42589 4.17477 6.12364 4.17581C4.62287 4.17581 3.12211 4.16543 1.62657 4.17581C0.533676 4.18618 -0.0760481 3.38735 0.00761839 2.55533C0.0463141 2.17044 0.00761915 1.77932 0.01494 1.39028C0.0141141 1.20895 0.0493027 1.02923 0.118495 0.861386C0.187688 0.693543 0.289531 0.540862 0.418208 0.412061C0.546885 0.283261 0.699879 0.180863 0.86845 0.110715C1.03702 0.0405675 1.21786 0.00404318 1.40067 0.00322759C3.04471 -0.00403449 4.68876 0.00322759 6.33281 0.00322759C6.6085 -0.0107243 6.87955 0.0776688 7.09312 0.251175C7.32007 0.451401 7.5627 0.4846 7.84612 0.478375C8.49767 0.465926 9.15027 0.47215 9.80287 0.478375C10.8937 0.478375 11.7899 1.13196 12.088 2.19222C12.4405 3.43715 12.7615 4.68208 13.07 5.93634C13.1433 6.23305 13.2604 6.32953 13.5637 6.30982C14.0186 6.28181 14.4767 6.30048 14.9337 6.3036C15.3907 6.30671 15.6564 6.54428 15.6491 6.89909C15.6417 7.25389 15.374 7.4676 14.9515 7.46968C13.8555 7.46968 12.7553 7.47798 11.6644 7.46968C11.3946 7.46968 11.3423 7.52051 11.4134 7.7944C12.529 12.0769 13.6397 16.3612 14.7455 20.6472C14.9316 21.3662 15.3447 21.6753 16.105 21.6753C22.1855 21.6753 28.2656 21.6753 34.3454 21.6753C35.0973 21.6753 35.5083 21.3548 35.6976 20.6379C35.8022 20.2385 35.8932 19.8349 36.0114 19.4397C36.116 19.0869 36.4161 18.9074 36.7173 18.9842C37.0635 19.0714 37.2402 19.3867 37.1419 19.7716C37.0373 20.2105 36.9254 20.6483 36.8052 21.084C36.5019 22.1723 35.6161 22.8414 34.473 22.8414C27.4805 22.8414 20.4874 22.8414 13.4936 22.8414C12.6371 22.8414 12.0964 23.3601 12.134 24.1372C12.1479 24.4233 12.2666 24.6946 12.4679 24.9002C12.6691 25.1057 12.939 25.2313 13.2269 25.2535C13.3827 25.2638 13.5407 25.2586 13.6965 25.2586H36.9464C37.8813 25.2586 38.5381 25.767 38.6929 26.6011C38.7356 26.831 38.7274 27.0673 38.6686 27.2937C38.6099 27.5201 38.5021 27.731 38.3527 27.9119C38.2034 28.0927 38.0161 28.239 37.8039 28.3407C37.5918 28.4424 37.3598 28.497 37.1241 28.5006C36.6682 28.5172 36.2122 28.5006 35.7154 28.5006C36.4276 30.1201 36.2007 31.5092 34.6895 32.5124C34.1926 32.8331 33.6056 32.9884 33.0137 32.9555C32.4218 32.9227 31.8559 32.7035 31.3982 32.3298C30.1286 31.2851 29.9508 29.9873 30.6431 28.5214H18.2678C18.8336 30.479 18.5701 31.6015 17.359 32.4325C16.8553 32.7739 16.2567 32.9507 15.6467 32.9383C15.0368 32.9258 14.446 32.7247 13.9569 32.363C12.7877 31.4854 12.5409 30.313 13.1569 28.5172ZM13.8335 21.6421C13.758 21.4883 13.6991 21.3269 13.6578 21.1608C13.6181 20.8682 13.4769 20.7935 13.1861 20.8018C11.5714 20.8526 10.2819 22.0633 10.056 23.7678C9.86248 25.2275 10.9313 26.7982 12.4321 27.1769C13.2684 27.3899 14.1438 27.4027 14.986 27.2142C15.4813 27.0911 16.0007 27.1008 16.491 27.2422C16.6788 27.2961 16.8738 27.3213 17.0693 27.3169H31.8228C32.0054 27.3223 32.1876 27.3002 32.3635 27.2516C32.8229 27.0935 33.3194 27.0758 33.789 27.2007C34.2126 27.3252 34.6372 27.3149 35.066 27.3159C35.6527 27.3159 36.2404 27.3159 36.8271 27.3159C36.9571 27.3179 37.0868 27.3057 37.2141 27.2796C37.4379 27.2277 37.5278 27.0721 37.5174 26.8459C37.521 26.7537 37.4889 26.6636 37.4276 26.5941C37.3663 26.5247 37.2806 26.4811 37.1879 26.4724C37.02 26.4529 36.8508 26.4452 36.6818 26.4496H13.7885C13.5679 26.4496 13.3451 26.4434 13.1244 26.4247C11.9175 26.321 11.0328 25.4246 10.9177 24.1922C10.8131 23.1122 11.6122 22.0488 12.7343 21.7397C13.091 21.6401 13.4549 21.7148 13.8335 21.6421ZM3.83327 2.97445C4.60195 2.97445 5.37169 2.96615 6.14142 2.97445C6.42379 2.97445 6.54929 2.87693 6.54197 2.59268C6.53151 2.24306 6.53465 1.89344 6.54197 1.54486C6.54197 1.28861 6.43739 1.1662 6.16966 1.16723C4.64414 1.17138 3.11827 1.17138 1.59205 1.16723C1.317 1.16723 1.17895 1.27824 1.18418 1.55939C1.18941 1.89552 1.19568 2.23268 1.18418 2.56778C1.17372 2.87175 1.30863 2.98275 1.60251 2.97445C2.3461 2.96615 3.08968 2.97445 3.83327 2.97445ZM15.7066 28.3253C15.478 28.3235 15.2514 28.3667 15.0397 28.4523C14.8281 28.538 14.6356 28.6644 14.4735 28.8242C14.3114 28.984 14.1828 29.1742 14.0952 29.3836C14.0076 29.593 13.9628 29.8176 13.9632 30.0444C13.9624 30.5022 14.1449 30.9416 14.4707 31.2659C14.7964 31.5903 15.2388 31.7729 15.7003 31.7738C16.1619 31.7746 16.6048 31.5935 16.9318 31.2703C17.2587 30.9472 17.4429 30.5084 17.4437 30.0506C17.4451 29.8238 17.4011 29.599 17.3143 29.3892C17.2276 29.1794 17.0997 28.9888 16.9381 28.8283C16.7766 28.6679 16.5845 28.5408 16.3732 28.4544C16.1618 28.3681 15.9352 28.3242 15.7066 28.3253ZM31.4578 30.0371C31.4563 30.2639 31.5001 30.4888 31.5867 30.6988C31.6732 30.9087 31.8008 31.0996 31.9621 31.2604C32.1234 31.4212 32.3152 31.5487 32.5265 31.6355C32.7377 31.7224 32.9642 31.7669 33.1929 31.7665C33.6535 31.7539 34.0912 31.5643 34.4137 31.2379C34.7362 30.9114 34.9183 30.4734 34.9216 30.0163C34.9153 29.5651 34.7299 29.1346 34.4057 28.818C34.0815 28.5015 33.6446 28.3245 33.1897 28.3253C32.9615 28.3204 32.7346 28.3613 32.5226 28.4455C32.3106 28.5297 32.118 28.6555 31.9563 28.8153C31.7945 28.9752 31.667 29.1658 31.5814 29.3757C31.4957 29.5857 31.4537 29.8106 31.4578 30.0371ZM8.90764 1.63927H8.32093C7.73004 1.63927 7.74468 1.63927 7.74258 2.21505C7.74258 2.46818 7.83671 2.51798 8.06261 2.50968C8.49244 2.49619 8.92333 2.50968 9.35317 2.50968C9.91059 2.50968 10.0685 2.62795 10.2087 3.15393C10.4373 4.01362 10.6625 4.8747 10.8843 5.73715C11.0369 6.32642 11.0338 6.31812 11.6509 6.30878C11.883 6.30878 11.9364 6.25795 11.8715 6.01934C11.5578 4.87815 11.2733 3.72245 10.9648 2.57711C10.8079 1.99096 10.3864 1.67143 9.76836 1.64342C9.4818 1.62993 9.1942 1.63927 8.90764 1.63927Z" fill="#01040B"/>
</svg>
