<svg width="33" height="33" viewBox="0 0 33 33" fill="none" xmlns="http://www.w3.org/2000/svg">
<path d="M2.74899 16.9812L10.724 16.9812C12.8277 16.9812 14.2715 18.5762 14.2715 20.5287L14.2715 24.9562C14.2715 26.9087 12.8277 28.5037 10.724 28.5037L6.29649 28.5037C4.34399 28.5037 2.74899 26.9087 2.74899 24.9562L2.74899 16.9812Z" stroke="#020F23" stroke-width="3.5" stroke-linecap="round" stroke-linejoin="round"/>
<path d="M2.74977 16.9812C2.74976 8.66245 4.30352 7.28752 8.97851 4.51002" stroke="#020F23" stroke-width="3.5" stroke-linecap="round" stroke-linejoin="round"/>
<path d="M18.7412 16.9812L26.7162 16.9812C28.8199 16.9812 30.2637 18.5762 30.2637 20.5287L30.2637 24.9562C30.2637 26.9087 28.8199 28.5037 26.7162 28.5037L22.2749 28.5037C20.3224 28.5037 18.7274 26.9087 18.7274 24.9562L18.7274 16.9812" stroke="#020F23" stroke-width="3.5" stroke-linecap="round" stroke-linejoin="round"/>
<path d="M18.742 16.9812C18.742 8.66245 20.2957 7.28752 24.9707 4.51002" stroke="#020F23" stroke-width="3.5" stroke-linecap="round" stroke-linejoin="round"/>
</svg>
