<svg width="24" height="26" viewBox="0 0 24 26" fill="none" xmlns="http://www.w3.org/2000/svg">
<path d="M22 13.0666C22 7.1756 17.5228 2.39997 12 2.39997C6.47715 2.39997 2 7.1756 2 13.0666C2 18.9577 6.47715 23.7333 12 23.7333C17.5228 23.7333 22 18.9577 22 13.0666Z" stroke="white" stroke-width="1.5" stroke-linecap="round" stroke-linejoin="round"/>
<path d="M3 17.3333L3 16.2666C8.84 18.3466 15.16 18.3466 21 16.2666L21 17.3333" stroke="white" stroke-width="1.5" stroke-linecap="round" stroke-linejoin="round"/>
<path d="M3 9.86664C8.84 7.78664 15.16 7.78664 21 9.86664" stroke="white" stroke-width="1.5" stroke-linecap="round" stroke-linejoin="round"/>
<path d="M16 22.6666L15 22.6666C16.95 16.4373 16.95 9.69598 15 3.46664L16 3.46664" stroke="white" stroke-width="1.5" stroke-linecap="round" stroke-linejoin="round"/>
<path d="M8.99998 22.6666C7.04998 16.4373 7.04998 9.69598 8.99997 3.46664" stroke="white" stroke-width="1.5" stroke-linecap="round" stroke-linejoin="round"/>
</svg>
