<svg width="44" height="44" viewBox="0 0 44 44" fill="none" xmlns="http://www.w3.org/2000/svg">
<path d="M11 32.1202L12.5784 26.2563C11.3055 23.9721 10.901 21.3065 11.4393 18.7488C11.9777 16.1911 13.4226 13.9129 15.5091 12.3321C17.5956 10.7513 20.1836 9.974 22.7982 10.1429C25.4128 10.3118 27.8787 11.4155 29.7434 13.2514C31.608 15.0874 32.7463 17.5326 32.9495 20.1381C33.1526 22.7437 32.4069 25.335 30.8492 27.4364C29.2915 29.5378 27.0263 31.0085 24.4693 31.5785C21.9122 32.1485 19.2349 31.7796 16.9285 30.5395L11 32.1202ZM17.2144 28.3452L17.581 28.5622C19.2516 29.5499 21.2027 29.9586 23.1305 29.7246C25.0582 29.4907 26.8542 28.6273 28.2387 27.2689C29.6231 25.9105 30.5181 24.1335 30.7843 22.2148C31.0505 20.2961 30.6728 18.3434 29.7102 16.6611C28.7477 14.9788 27.2542 13.6613 25.4626 12.914C23.671 12.1667 21.6818 12.0316 19.8052 12.5297C17.9285 13.0277 16.2697 14.131 15.0873 15.6676C13.9049 17.2042 13.2654 19.0877 13.2682 21.0247C13.2667 22.6308 13.712 24.2059 14.5546 25.5745L14.7846 25.9526L13.9021 29.2254L17.2144 28.3452Z" fill="#BAC6D7"/>
<path fill-rule="evenodd" clip-rule="evenodd" d="M26.1134 22.5304C25.8985 22.3575 25.6468 22.2358 25.3776 22.1746C25.1084 22.1133 24.8287 22.1142 24.5598 22.1771C24.1559 22.3445 23.8949 22.9767 23.6339 23.2929C23.5789 23.3686 23.498 23.4218 23.4065 23.4423C23.3149 23.4629 23.219 23.4494 23.1367 23.4044C21.6579 22.8267 20.4184 21.7672 19.6194 20.3981C19.5513 20.3127 19.519 20.2042 19.5294 20.0955C19.5399 19.9868 19.5922 19.8864 19.6753 19.8155C19.9664 19.528 20.1802 19.172 20.2968 18.7803C20.3227 18.3483 20.2234 17.9179 20.0109 17.5406C19.8466 17.0116 19.5339 16.5405 19.1098 16.1831C18.8911 16.085 18.6485 16.0521 18.4115 16.0884C18.1744 16.1247 17.9529 16.2286 17.7737 16.3877C17.4627 16.6553 17.2158 16.9892 17.0513 17.3647C16.8867 17.7401 16.8087 18.1476 16.8229 18.5572C16.8239 18.7871 16.8531 19.0161 16.9099 19.239C17.0542 19.7745 17.2762 20.2861 17.5687 20.7576C17.7797 21.1188 18.01 21.4685 18.2585 21.8052C19.066 22.911 20.0812 23.8499 21.2476 24.5698C21.8329 24.9356 22.4584 25.233 23.1119 25.4562C23.7907 25.7631 24.5402 25.8809 25.2807 25.7971C25.7026 25.7334 26.1024 25.5672 26.4448 25.3132C26.7873 25.0592 27.0619 24.7251 27.2444 24.3404C27.3517 24.108 27.3843 23.8482 27.3377 23.5966C27.2258 23.0821 26.536 22.7784 26.1134 22.5304Z" fill="#BAC6D7"/>
</svg>
