<svg width="24" height="24" viewBox="0 0 24 24" fill="none" xmlns="http://www.w3.org/2000/svg">
<path d="M8.17653 11.9999C8.17653 9.88883 9.88844 8.17703 12.0008 8.17703C14.1131 8.17703 15.8259 9.88883 15.8259 11.9999C15.8259 14.111 14.1131 15.8228 12.0008 15.8228C9.88844 15.8228 8.17653 14.111 8.17653 11.9999ZM6.10873 11.9999C6.10873 15.2521 8.74659 17.8884 12.0008 17.8884C15.2549 17.8884 17.8928 15.2521 17.8928 11.9999C17.8928 8.74766 15.2549 6.11138 12.0008 6.11138C8.74659 6.11138 6.10873 8.74766 6.10873 11.9999ZM16.7491 5.8779C16.749 6.15007 16.8297 6.41616 16.9809 6.64253C17.1321 6.86889 17.3471 7.04535 17.5986 7.14961C17.8502 7.25387 18.127 7.28123 18.3942 7.22824C18.6613 7.17525 18.9067 7.04428 19.0993 6.8519C19.292 6.65953 19.4232 6.41438 19.4764 6.14746C19.5297 5.88054 19.5025 5.60384 19.3984 5.35234C19.2943 5.10085 19.1179 4.88586 18.8915 4.73456C18.6651 4.58326 18.3989 4.50244 18.1266 4.50233H18.1261C17.761 4.5025 17.411 4.64746 17.1528 4.90538C16.8946 5.1633 16.7494 5.51308 16.7491 5.8779ZM7.36505 21.3343C6.24633 21.2834 5.63827 21.0971 5.23418 20.9398C4.69846 20.7314 4.31622 20.4831 3.91434 20.082C3.51245 19.6809 3.26368 19.2993 3.05604 18.7639C2.89852 18.3602 2.71217 17.7523 2.66132 16.6343C2.60569 15.4255 2.59458 15.0624 2.59458 12C2.59458 8.93757 2.60661 8.57546 2.66132 7.36567C2.71226 6.24762 2.89999 5.64093 3.05604 5.23608C3.2646 4.70068 3.513 4.31867 3.91434 3.91702C4.31567 3.51538 4.69754 3.26676 5.23418 3.05924C5.63809 2.90181 6.24633 2.71558 7.36505 2.66475C8.57456 2.60916 8.93789 2.59806 12.0008 2.59806C15.0636 2.59806 15.4273 2.61008 16.6379 2.66475C17.7566 2.71567 18.3636 2.90328 18.7687 3.05924C19.3045 3.26676 19.6867 3.51593 20.0886 3.91702C20.4905 4.31812 20.7383 4.70068 20.9469 5.23608C21.1044 5.63974 21.2907 6.24762 21.3416 7.36567C21.3972 8.57546 21.4083 8.93757 21.4083 12C21.4083 15.0624 21.3972 15.4245 21.3416 16.6343C21.2907 17.7523 21.1034 18.36 20.9469 18.7639C20.7383 19.2993 20.4899 19.6813 20.0886 20.082C19.6872 20.4828 19.3045 20.7314 18.7687 20.9398C18.3648 21.0972 17.7566 21.2835 16.6379 21.3343C15.4284 21.3899 15.065 21.401 12.0008 21.401C8.93651 21.401 8.57419 21.3899 7.36505 21.3343ZM7.27004 0.601675C6.04851 0.65727 5.21381 0.850844 4.48485 1.13432C3.72992 1.42707 3.09083 1.81982 2.4522 2.45705C1.81358 3.09429 1.42161 3.734 1.12868 4.48848C0.845034 5.21746 0.651344 6.0512 0.595715 7.272C0.539168 8.49473 0.526225 8.88564 0.526225 11.9999C0.526225 15.1141 0.539168 15.5051 0.595715 16.7278C0.651344 17.9487 0.845034 18.7823 1.12868 19.5113C1.42161 20.2653 1.81367 20.9058 2.4522 21.5427C3.09074 22.1797 3.72992 22.5719 4.48485 22.8655C5.21518 23.1489 6.04851 23.3425 7.27004 23.3981C8.49415 23.4537 8.88465 23.4676 12.0008 23.4676C15.1169 23.4676 15.508 23.4546 16.7315 23.3981C17.9531 23.3425 18.7873 23.1489 19.5167 22.8655C20.2712 22.5719 20.9107 22.18 21.5493 21.5427C22.188 20.9055 22.5791 20.2653 22.8729 19.5113C23.1565 18.7823 23.3511 17.9486 23.4058 16.7278C23.4615 15.5041 23.4744 15.1141 23.4744 11.9999C23.4744 8.88564 23.4615 8.49473 23.4058 7.272C23.3502 6.05111 23.1565 5.217 22.8729 4.48848C22.5791 3.73446 22.1869 3.0953 21.5493 2.45705C20.9117 1.81881 20.2712 1.42707 19.5176 1.13432C18.7873 0.850844 17.953 0.656353 16.7324 0.601675C15.5089 0.54608 15.1178 0.532227 12.0017 0.532227C8.88557 0.532227 8.49415 0.545162 7.27004 0.601675Z" fill="white"/>
<path d="M8.17653 11.9999C8.17653 9.88883 9.88844 8.17703 12.0008 8.17703C14.1131 8.17703 15.8259 9.88883 15.8259 11.9999C15.8259 14.111 14.1131 15.8228 12.0008 15.8228C9.88844 15.8228 8.17653 14.111 8.17653 11.9999ZM6.10873 11.9999C6.10873 15.2521 8.74659 17.8884 12.0008 17.8884C15.2549 17.8884 17.8928 15.2521 17.8928 11.9999C17.8928 8.74766 15.2549 6.11138 12.0008 6.11138C8.74659 6.11138 6.10873 8.74766 6.10873 11.9999ZM16.7491 5.8779C16.749 6.15007 16.8297 6.41616 16.9809 6.64253C17.1321 6.86889 17.3471 7.04535 17.5986 7.14961C17.8502 7.25387 18.127 7.28123 18.3942 7.22824C18.6613 7.17525 18.9067 7.04428 19.0993 6.8519C19.292 6.65953 19.4232 6.41438 19.4764 6.14746C19.5297 5.88054 19.5025 5.60384 19.3984 5.35234C19.2943 5.10085 19.1179 4.88586 18.8915 4.73456C18.6651 4.58326 18.3989 4.50244 18.1266 4.50233H18.1261C17.761 4.5025 17.411 4.64746 17.1528 4.90538C16.8946 5.1633 16.7494 5.51308 16.7491 5.8779ZM7.36505 21.3343C6.24633 21.2834 5.63827 21.0971 5.23418 20.9398C4.69846 20.7314 4.31622 20.4831 3.91434 20.082C3.51245 19.6809 3.26368 19.2993 3.05604 18.7639C2.89852 18.3602 2.71217 17.7523 2.66132 16.6343C2.60569 15.4255 2.59458 15.0624 2.59458 12C2.59458 8.93757 2.60661 8.57546 2.66132 7.36567C2.71226 6.24762 2.89999 5.64093 3.05604 5.23608C3.2646 4.70068 3.513 4.31867 3.91434 3.91702C4.31567 3.51538 4.69754 3.26676 5.23418 3.05924C5.63809 2.90181 6.24633 2.71558 7.36505 2.66475C8.57456 2.60916 8.93789 2.59806 12.0008 2.59806C15.0636 2.59806 15.4273 2.61008 16.6379 2.66475C17.7566 2.71567 18.3636 2.90328 18.7687 3.05924C19.3045 3.26676 19.6867 3.51593 20.0886 3.91702C20.4905 4.31812 20.7383 4.70068 20.9469 5.23608C21.1044 5.63974 21.2907 6.24762 21.3416 7.36567C21.3972 8.57546 21.4083 8.93757 21.4083 12C21.4083 15.0624 21.3972 15.4245 21.3416 16.6343C21.2907 17.7523 21.1034 18.36 20.9469 18.7639C20.7383 19.2993 20.4899 19.6813 20.0886 20.082C19.6872 20.4828 19.3045 20.7314 18.7687 20.9398C18.3648 21.0972 17.7566 21.2835 16.6379 21.3343C15.4284 21.3899 15.065 21.401 12.0008 21.401C8.93651 21.401 8.57419 21.3899 7.36505 21.3343ZM7.27004 0.601675C6.04851 0.65727 5.21381 0.850844 4.48485 1.13432C3.72992 1.42707 3.09083 1.81982 2.4522 2.45705C1.81358 3.09429 1.42161 3.734 1.12868 4.48848C0.845034 5.21746 0.651344 6.0512 0.595715 7.272C0.539168 8.49473 0.526225 8.88564 0.526225 11.9999C0.526225 15.1141 0.539168 15.5051 0.595715 16.7278C0.651344 17.9487 0.845034 18.7823 1.12868 19.5113C1.42161 20.2653 1.81367 20.9058 2.4522 21.5427C3.09074 22.1797 3.72992 22.5719 4.48485 22.8655C5.21518 23.1489 6.04851 23.3425 7.27004 23.3981C8.49415 23.4537 8.88465 23.4676 12.0008 23.4676C15.1169 23.4676 15.508 23.4546 16.7315 23.3981C17.9531 23.3425 18.7873 23.1489 19.5167 22.8655C20.2712 22.5719 20.9107 22.18 21.5493 21.5427C22.188 20.9055 22.5791 20.2653 22.8729 19.5113C23.1565 18.7823 23.3511 17.9486 23.4058 16.7278C23.4615 15.5041 23.4744 15.1141 23.4744 11.9999C23.4744 8.88564 23.4615 8.49473 23.4058 7.272C23.3502 6.05111 23.1565 5.217 22.8729 4.48848C22.5791 3.73446 22.1869 3.0953 21.5493 2.45705C20.9117 1.81881 20.2712 1.42707 19.5176 1.13432C18.7873 0.850844 17.953 0.656353 16.7324 0.601675C15.5089 0.54608 15.1178 0.532227 12.0017 0.532227C8.88557 0.532227 8.49415 0.545162 7.27004 0.601675Z" fill="white"/>
</svg>
