<svg width="24" height="22" viewBox="0 0 24 22" fill="none" xmlns="http://www.w3.org/2000/svg">
<path d="M5.93298 21.8242V7.55653H1.19063V21.8242H5.93348H5.93298ZM3.5628 5.60886C5.21621 5.60886 6.24557 4.51327 6.24557 3.14409C6.21462 1.74372 5.21621 0.678711 3.59424 0.678711C1.97116 0.678711 0.911102 1.74372 0.911102 3.14397C0.911102 4.51315 1.94009 5.60874 3.53172 5.60874H3.56243L3.5628 5.60886ZM8.55794 21.8242H13.2999V13.8573C13.2999 13.4315 13.3309 13.0045 13.4561 12.7003C13.7988 11.848 14.5791 10.9657 15.8895 10.9657C17.605 10.9657 18.2917 12.274 18.2917 14.1922V21.8242H23.0336V13.6435C23.0336 9.26132 20.6943 7.22203 17.5743 7.22203C15.0163 7.22203 13.8929 8.65175 13.2687 9.62552H13.3003V7.55703H8.55819C8.62008 8.8955 8.55781 21.8247 8.55781 21.8247L8.55794 21.8242Z" fill="white"/>
</svg>
