<svg width="19" height="19" viewBox="0 0 19 19" fill="none" xmlns="http://www.w3.org/2000/svg">
<path d="M16.3249 6.68942C15.4936 3.03192 12.3032 1.38525 9.50069 1.38525C9.50069 1.38525 9.50069 1.38525 9.49277 1.38525C6.69819 1.38525 3.49985 3.024 2.6686 6.6815C1.74235 10.7665 4.24402 14.2261 6.50819 16.4032C7.34735 17.2107 8.42402 17.6144 9.50069 17.6144C10.5774 17.6144 11.654 17.2107 12.4853 16.4032C14.7494 14.2261 17.2511 10.7744 16.3249 6.68942ZM9.50069 10.6557C8.12319 10.6557 7.00694 9.53942 7.00694 8.16192C7.00694 6.78442 8.12319 5.66817 9.50069 5.66817C10.8782 5.66817 11.9944 6.78442 11.9944 8.16192C11.9944 9.53942 10.8782 10.6557 9.50069 10.6557Z" fill="white"/>
</svg>
