<svg width="49" height="49" viewBox="0 0 49 49" fill="none" xmlns="http://www.w3.org/2000/svg">
<path d="M36.7092 22.0296V30.1963C36.7092 30.7271 36.6887 31.2375 36.6275 31.7275C36.1579 37.24 32.9117 39.9758 26.9296 39.9758H26.1129C25.6025 39.9758 25.1125 40.2208 24.8062 40.6292L22.3563 43.8958C21.2742 45.3454 19.5183 45.3454 18.4362 43.8958L15.9862 40.6292C15.7208 40.2821 15.1287 39.9758 14.6796 39.9758H13.8629C7.35 39.9758 4.08331 38.3629 4.08331 30.1963V22.0296C4.08331 16.0475 6.83958 12.8013 12.3317 12.3317C12.8217 12.2704 13.3321 12.25 13.8629 12.25H26.9296C33.4425 12.25 36.7092 15.5167 36.7092 22.0296Z" stroke="white" stroke-width="1.5" stroke-miterlimit="10" stroke-linecap="round" stroke-linejoin="round"/>
<path d="M44.8758 13.8629V22.0296C44.8758 28.0321 42.1196 31.2579 36.6275 31.7275C36.6887 31.2375 36.7092 30.7271 36.7092 30.1963V22.0296C36.7092 15.5167 33.4425 12.25 26.9296 12.25H13.8629C13.3321 12.25 12.8217 12.2704 12.3317 12.3317C12.8012 6.83961 16.0475 4.08334 22.0296 4.08334H35.0962C41.6092 4.08334 44.8758 7.35003 44.8758 13.8629Z" stroke="white" stroke-width="1.5" stroke-miterlimit="10" stroke-linecap="round" stroke-linejoin="round"/>
<path d="M27.5533 27.0521H27.5717" stroke="white" stroke-width="2" stroke-linecap="round" stroke-linejoin="round"/>
<path d="M20.4075 27.0521H20.4258" stroke="white" stroke-width="2" stroke-linecap="round" stroke-linejoin="round"/>
<path d="M13.2616 27.0521H13.28" stroke="white" stroke-width="2" stroke-linecap="round" stroke-linejoin="round"/>
</svg>
