<svg width="24" height="26" viewBox="0 0 24 26" fill="none" xmlns="http://www.w3.org/2000/svg">
<path d="M12 23.5333C16.13 23.5333 19.5 19.9386 19.5 15.5333V10.2C19.5 5.79465 16.13 2.19998 12 2.19998C7.87 2.19998 4.5 5.79465 4.5 10.2V15.5333C4.5 19.9386 7.87 23.5333 12 23.5333Z" stroke="white" stroke-width="1.5" stroke-linecap="round" stroke-linejoin="round"/>
<path d="M12 11.8C11.17 11.8 10.5 11.0853 10.5 10.2V8.06664C10.5 7.18131 11.17 6.46664 12 6.46664C12.82 6.46664 13.5 7.18131 13.5 8.06664V10.2C13.5 11.0853 12.82 11.8 12 11.8Z" stroke="white" stroke-width="1.5" stroke-linecap="round" stroke-linejoin="round"/>
<path d="M12 6.46665V2.19998" stroke="white" stroke-width="1.5" stroke-linecap="round" stroke-linejoin="round"/>
</svg>
