<svg width="24" height="24" viewBox="0 0 24 24" fill="none" xmlns="http://www.w3.org/2000/svg">
<path d="M22.0002 8.34L22.0002 15.66C22.0002 17.16 20.3703 18.1 19.0703 17.35L15.9002 15.53L12.7303 13.7C12.5303 13.58 12.3702 13.45 12.2402 13.29L12.2402 10.73C12.3702 10.57 12.5303 10.44 12.7303 10.32L15.9002 8.48999L19.0703 6.67002C20.3703 5.90002 22.0002 6.84 22.0002 8.34Z" stroke="white" stroke-width="1.5" stroke-linecap="round" stroke-linejoin="round"/>
<path d="M12.2391 8.34L12.2391 15.66C12.2391 17.16 10.6091 18.1 9.30914 17.35L6.13916 15.53L2.96914 13.7C1.66914 12.95 1.66914 11.08 2.96914 10.32L6.13915 8.48999L9.30914 6.67002C10.6091 5.90002 12.2391 6.84 12.2391 8.34Z" stroke="white" stroke-width="1.5" stroke-linecap="round" stroke-linejoin="round"/>
</svg>
