<svg width="24" height="24" viewBox="0 0 24 24" fill="none" xmlns="http://www.w3.org/2000/svg">
<path d="M1.99976 15.66L1.99976 8.33999C1.99976 6.83999 3.62975 5.89999 4.92975 6.64999L8.09976 8.47L11.2697 10.3C11.4697 10.42 11.6298 10.55 11.7598 10.71L11.7598 13.27C11.6298 13.43 11.4697 13.56 11.2697 13.68L8.09976 15.51L4.92975 17.33C3.62975 18.1 1.99976 17.16 1.99976 15.66Z" stroke="white" stroke-width="1.5" stroke-linecap="round" stroke-linejoin="round"/>
<path d="M11.7609 15.66L11.7609 8.33999C11.7609 6.83999 13.3909 5.89999 14.6909 6.64999L17.8608 8.47L21.0309 10.3C22.3309 11.05 22.3309 12.92 21.0309 13.68L17.8608 15.51L14.6909 17.33C13.3909 18.1 11.7609 17.16 11.7609 15.66Z" stroke="white" stroke-width="1.5" stroke-linecap="round" stroke-linejoin="round"/>
</svg>
