<svg width="40" height="41" viewBox="0 0 40 41" fill="none" xmlns="http://www.w3.org/2000/svg">
<path d="M11.2013 0C11.8115 0.157231 12.4408 0.213918 13.0447 0.406446C15.9025 1.31133 18.001 3.11503 19.3401 5.81755C19.4779 6.09564 19.427 6.21544 19.1547 6.30849C18.8825 6.40155 18.5932 6.64756 18.357 6.59835C18.1207 6.54915 18.0688 6.13415 17.9236 5.88707C16.2062 2.95744 13.6529 1.39476 10.2954 1.29528C5.97274 1.16479 2.11943 4.43134 1.43501 8.72043C0.654175 13.5839 3.69064 18.0473 8.45298 19.0389C13.2916 20.0464 18.0942 16.6964 18.9047 11.7495C18.9672 11.3688 18.999 10.9826 19.0446 10.5997C19.0413 10.5597 19.0434 10.5194 19.0509 10.4799C19.2692 9.95261 19.7078 10.3666 20.0288 10.2564C20.2248 10.1879 20.3318 10.282 20.3244 10.5259C20.2725 12.279 19.836 13.9305 18.9206 15.4172C16.7275 18.98 13.5173 20.7171 9.38002 20.4646C4.68866 20.1801 0.828993 16.4868 0.114906 11.7763C-0.701949 6.38443 2.92357 1.19474 8.21671 0.175416C8.52396 0.116588 8.84498 0.128352 9.13952 0H11.2013Z" fill="#01040B"/>
<path d="M36.4207 0C36.7227 0.198945 36.8339 0.471695 36.8244 0.843915C36.8 1.73703 36.8095 2.63121 36.8244 3.52433C36.8244 3.75322 36.7862 3.84521 36.5256 3.85056C35.5519 3.86125 35.5519 3.87195 35.5519 2.88792V2.38948C34.8781 3.17884 34.27 3.88692 33.665 4.60248C32.1817 6.35448 30.6967 8.10792 29.2099 9.86277C28.9758 10.1419 28.713 10.3088 28.3539 10.2414C27.3177 10.0478 26.6587 10.5291 25.9796 11.2982C22.2216 15.5552 18.4054 19.7469 14.6209 23.9665C14.5163 24.0934 14.3837 24.1938 14.2338 24.2597C14.0839 24.3256 13.9207 24.3552 13.7575 24.3462C12.7669 24.3259 11.7752 24.3462 10.7846 24.3323C10.6749 24.3278 10.5657 24.3482 10.4649 24.3918C10.3641 24.4355 10.2742 24.5014 10.2019 24.5847C8.11364 26.7025 6.01482 28.8096 3.93083 30.9317C3.69987 31.167 3.58015 31.1724 3.35236 30.9317C2.74634 30.2835 2.73363 30.29 3.35236 29.6749C5.41198 27.5892 7.47301 25.5024 9.53546 23.4146C9.64537 23.2927 9.78068 23.197 9.93164 23.1343C10.0826 23.0716 10.2454 23.0435 10.4085 23.052C11.3991 23.0723 12.3907 23.052 13.3814 23.0627C13.4779 23.0684 13.5743 23.0511 13.663 23.0123C13.7517 22.9734 13.8302 22.9141 13.892 22.8391C17.918 18.3532 21.9486 13.8691 25.9838 9.3868C26.254 9.08517 26.539 8.89478 26.9448 8.96965C27.9046 9.14828 28.534 8.74076 29.1379 7.98349C30.8616 5.84429 32.6776 3.77568 34.4564 1.67927C34.5486 1.57231 34.6344 1.45679 34.7743 1.28031C34.253 1.28031 33.7974 1.26855 33.344 1.28566C33.0961 1.29529 32.9859 1.23646 33.006 0.96478C33.0304 0.6439 33.0113 0.323021 33.0113 0.00214129L36.4207 0Z" fill="#01040B"/>
<path d="M20.314 40.9928C13.9041 40.9928 7.49395 40.9953 1.08341 41.0003C0.745441 41.0003 0.638439 40.9351 0.644796 40.5725C0.668105 39.0515 0.653268 37.5306 0.654328 36.0085C0.654328 35.0919 1.14275 34.5924 2.038 34.5913C3.25428 34.5913 4.4702 34.5913 5.68577 34.5913C6.47402 34.5913 6.99423 35.1261 6.99741 35.924C6.99741 37.0717 7.00694 38.2194 6.99105 39.366C6.99105 39.6462 7.06097 39.7393 7.34174 39.7211C7.71102 39.6944 8.08173 39.6944 8.45101 39.7211C8.80064 39.7489 8.914 39.6537 8.91188 39.274C8.89387 36.4856 8.90129 33.6961 8.90235 30.9076C8.90093 29.9428 9.38123 29.4604 10.3432 29.4604C11.532 29.4604 12.7214 29.4604 13.9115 29.4604C14.7263 29.4604 15.2444 29.9856 15.2444 30.8103C15.2444 33.6394 15.2518 36.4684 15.238 39.2975C15.238 39.6248 15.309 39.7446 15.647 39.7158C16.0156 39.6826 16.3865 39.6826 16.7552 39.7158C17.1059 39.7489 17.179 39.6088 17.1567 39.2879C17.1302 38.8601 17.1504 38.4322 17.1504 38.0044C17.1504 33.08 17.1504 28.1562 17.1504 23.2332C17.1504 22.2417 17.6208 21.769 18.6071 21.769C19.7842 21.769 20.9602 21.769 22.1363 21.769C22.9838 21.769 23.4924 22.2856 23.4924 23.1359C23.4924 28.4996 23.4899 33.8636 23.485 39.228C23.485 39.6024 23.5528 39.7553 23.9511 39.7115C24.3066 39.6756 24.6647 39.6756 25.0201 39.7115C25.3475 39.7403 25.4047 39.6045 25.4037 39.3093C25.3952 33.6518 25.3931 27.9944 25.3973 22.3369C25.3973 19.6273 25.3973 16.9176 25.3973 14.208C25.3973 13.2988 25.89 12.8014 26.7916 12.8004H30.3196C31.2456 12.8004 31.7404 13.2967 31.7404 14.224V39.1638C31.7404 39.6986 31.7404 39.6986 32.2924 39.6986C32.6621 39.6986 33.034 39.6901 33.4017 39.6986C33.5955 39.7051 33.6644 39.6323 33.6464 39.4451C33.6411 39.3382 33.6411 39.2312 33.6464 39.1243C33.6464 28.2907 33.6414 17.456 33.6316 6.62023C33.6316 5.69182 34.245 5.05006 35.1371 5.09391C36.3099 5.15167 37.4891 5.10568 38.6651 5.10889C39.4576 5.10889 39.9852 5.6362 39.9895 6.4277C39.9895 7.16144 39.9831 7.89519 39.9948 8.62894C39.9948 8.85462 39.963 8.95517 39.6992 8.95837C38.7223 8.97014 38.7223 8.98084 38.7223 7.99574C38.7223 7.54223 38.7149 7.08871 38.7223 6.6352C38.7223 6.44802 38.6704 6.37957 38.4765 6.38064C37.3676 6.38848 36.2576 6.38848 35.1466 6.38064C34.9442 6.38064 34.8923 6.463 34.9103 6.64162C34.9167 6.70794 34.9103 6.77533 34.9103 6.84164C34.9103 17.6367 34.9072 28.4319 34.9008 39.227C34.9008 39.6184 34.9983 39.7125 35.3765 39.7008C36.3406 39.6719 37.3069 39.6751 38.271 39.7008C38.6259 39.7104 38.7276 39.6195 38.7266 39.2483C38.7153 31.5358 38.7124 23.8233 38.7181 16.1108C38.7181 15.1096 38.7245 14.1085 38.7181 13.1084C38.7181 12.8774 38.7584 12.7875 39.0169 12.7875C39.9905 12.7779 39.9905 12.7661 39.9905 13.7502C39.9905 22.6635 39.9937 31.5768 40.0001 40.4901C40.0001 40.8945 39.9047 40.9886 39.5064 40.9875C33.1085 40.9832 26.7111 40.985 20.314 40.9928ZM26.6655 26.8613C26.6655 31.0099 26.663 35.1589 26.6581 39.3082C26.6581 39.6452 26.746 39.7286 27.0723 39.7211C28.0612 39.6976 29.0522 39.6976 30.0452 39.7211C30.3853 39.7297 30.4839 39.6516 30.4828 39.2933C30.468 35.1443 30.4733 30.9964 30.4733 26.8474C30.4733 22.7252 30.4757 18.6029 30.4807 14.4807C30.4807 14.1598 30.3927 14.0828 30.0866 14.0882C29.0822 14.1074 28.0735 14.1096 27.0745 14.0882C26.7492 14.0818 26.656 14.1598 26.657 14.5C26.6697 18.6168 26.6655 22.7391 26.6655 26.8613ZM18.4175 31.3451C18.4175 33.9998 18.4175 36.6546 18.4175 39.3082C18.4175 39.5938 18.4472 39.7361 18.7904 39.7222C19.8329 39.6965 20.8776 39.7061 21.9212 39.7222C22.1585 39.7222 22.239 39.6666 22.239 39.4131C22.2313 34.0651 22.2313 28.7171 22.239 23.3691C22.239 23.1166 22.1638 23.0567 21.9212 23.06C20.8914 23.0717 19.8605 23.0792 18.8296 23.06C18.5054 23.0535 18.4122 23.1316 18.4143 23.4718C18.4249 26.0901 18.4175 28.7171 18.4175 31.3451ZM10.1716 35.2192C10.1716 36.6096 10.1716 37.9926 10.1716 39.3799C10.1716 39.6323 10.2267 39.7232 10.4894 39.719C11.5489 39.7026 12.6059 39.7026 13.6604 39.719C13.9296 39.719 13.9846 39.6313 13.9836 39.3788C13.9758 36.6193 13.9758 33.859 13.9836 31.098C13.9836 30.8252 13.9253 30.7322 13.6393 30.7375C12.5953 30.7554 11.5517 30.7554 10.5085 30.7375C10.2214 30.7322 10.161 30.8263 10.1642 31.098C10.1769 32.4714 10.1716 33.8458 10.1716 35.2192ZM3.82216 39.7115C4.36355 39.7115 4.90495 39.7018 5.44634 39.7115C5.67201 39.7179 5.73769 39.6462 5.73557 39.4195C5.72498 38.3263 5.7271 37.2332 5.73557 36.1401C5.73557 35.9443 5.69743 35.8566 5.47706 35.8588C4.38156 35.8695 3.28677 35.8695 2.19269 35.8588C1.98079 35.8588 1.92146 35.9208 1.92358 36.1305C1.93206 37.2236 1.9363 38.3167 1.92358 39.4099C1.92358 39.673 2.01576 39.7179 2.24143 39.7115C2.76481 39.7029 3.29348 39.7125 3.8211 39.7125L3.82216 39.7115Z" fill="#01040B"/>
<path d="M10.7902 6.40436C10.2869 6.40436 9.78474 6.39688 9.28255 6.40436C8.34915 6.42041 7.64037 7.11137 7.63507 7.997C7.62977 8.88262 8.34386 9.58535 9.2709 9.60139C9.90658 9.61423 10.5423 9.60139 11.178 9.60139C11.9256 9.60958 12.6398 9.91583 13.1647 10.4534C13.6897 10.991 13.9828 11.7163 13.9803 12.4711C13.9803 14.0563 12.7492 15.3526 11.1991 15.359C10.8474 15.359 10.7944 15.4778 10.8018 15.7869C10.8199 16.65 10.8018 16.6329 9.94155 16.6565C9.60569 16.665 9.52411 16.5666 9.53259 16.2361C9.55377 15.3665 9.53788 15.3665 8.685 15.3665C8.63309 15.3665 8.57906 15.3665 8.52714 15.3665C8.24109 15.343 7.8014 15.496 7.70499 15.3013C7.55984 15.0136 7.64143 14.605 7.64355 14.2467C7.64355 13.9974 7.85544 14.0926 7.97092 14.0916C9.00179 14.0841 10.0337 14.0916 11.0646 14.0841C11.8168 14.0777 12.4324 13.6252 12.6316 12.9621C12.943 11.9246 12.2184 10.9213 11.1154 10.8881C10.4681 10.8689 9.82077 10.8881 9.17237 10.8881C8.42468 10.8797 7.71063 10.5731 7.18589 10.0354C6.66115 9.49758 6.36827 8.77219 6.37111 8.01732C6.37111 6.43217 7.60328 5.13582 9.15224 5.13582C9.50504 5.13582 9.55696 5.01709 9.54954 4.70798C9.53153 3.84481 9.54954 3.86193 10.4098 3.8384C10.7457 3.82984 10.8273 3.92824 10.8188 4.25875C10.7976 5.12833 10.8188 5.12833 11.6664 5.12833C11.7193 5.12833 11.7723 5.12833 11.8242 5.12833C12.1103 5.15186 12.55 4.99891 12.6464 5.19251C12.7915 5.4813 12.7015 5.88988 12.71 6.2482C12.71 6.43966 12.5722 6.4065 12.4589 6.4065C11.8995 6.40543 11.3443 6.40436 10.7902 6.40436Z" fill="#01040B"/>
<path d="M1.56421 31.543C1.64328 31.6724 1.73219 31.7954 1.83014 31.9109C2.38001 32.4778 2.38318 32.4757 1.84073 33.0233L1.78458 33.08C1.01011 33.8629 1.01117 33.8619 0.321449 32.9912C0.261059 32.9142 0.189009 32.8532 0.283303 32.758C0.647056 32.3908 1.01081 32.0243 1.37456 31.6585C1.43484 31.6153 1.49823 31.5766 1.56421 31.543Z" fill="#01040B"/>
<path d="M20.2217 8.70908C20.2609 8.85562 20.1719 8.90054 20.0554 8.91231C19.7058 8.94974 19.2904 9.17115 19.0287 8.99146C18.7671 8.81176 18.8751 8.33045 18.7543 7.99673C18.7024 7.85127 18.8349 7.82131 18.9323 7.79136C19.1474 7.74173 19.3596 7.68032 19.568 7.6074C19.8763 7.4769 20.0172 7.5721 20.0639 7.89191C20.1084 8.16358 20.1698 8.43526 20.2217 8.70908Z" fill="#01040B"/>
<path d="M39.9889 10.8827C39.9889 11.5245 39.9889 11.5245 39.2324 11.5245C38.7207 11.5245 38.7207 11.5245 38.7207 10.7501C38.7207 10.2441 38.7207 10.2441 39.4962 10.2441C39.9889 10.2484 39.9889 10.2484 39.9889 10.8827Z" fill="#01040B"/>
</svg>
