<svg width="40" height="44" viewBox="0 0 40 44" fill="none" xmlns="http://www.w3.org/2000/svg">
<path d="M6.04521 0.00574023C6.08727 0.102176 6.18732 0.0861034 6.26235 0.120545C7.44356 0.607316 7.91309 1.91264 7.27644 3.02625C7.13206 3.27652 7.17867 3.38788 7.3708 3.54517C7.93923 4.01472 8.50767 4.49575 9.06701 4.97793C9.21253 5.10192 9.3137 5.13406 9.49901 5.00089C10.6802 4.14789 11.9831 4.19726 13.0949 5.12602C15.1678 6.8634 17.2369 8.60499 19.3022 10.3508C20.098 11.0201 20.8938 11.6951 21.6896 12.3564C22.1148 12.7077 22.4638 13.0797 22.3081 13.6985C22.2717 13.8397 22.3808 13.9028 22.4661 13.9763C22.7128 14.191 22.9697 14.3953 23.2073 14.6204C23.877 15.2564 24.0032 16.1955 23.487 16.9578C23.3131 17.2149 23.354 17.332 23.5723 17.4997C23.8997 17.7499 24.2146 18.0186 24.5204 18.2953C25.4379 19.123 25.5789 20.4547 24.8513 21.3376C24.4697 21.8083 23.9188 22.107 23.3194 22.1679C22.72 22.2288 22.1212 22.047 21.6544 21.6625C21.3236 21.3927 20.995 21.1206 20.6756 20.837C20.5312 20.7084 20.4482 20.705 20.2936 20.8462C19.4364 21.6315 18.5507 21.6372 17.6651 20.8875C17.5514 20.7946 17.4377 20.7119 17.34 20.6109C17.1206 20.3813 16.9137 20.2733 16.5658 20.4088C16.1917 20.5546 15.8586 20.3296 15.5653 20.0816C13.7361 18.5409 11.9001 17.0083 10.0811 15.4561C9.80596 15.2265 9.66727 15.1852 9.43308 15.5112C8.82388 16.3556 8.3163 17.2701 7.92104 18.2356C7.80735 18.5134 7.84714 18.6282 8.13363 18.7763C10.2732 19.8796 11.3919 21.6636 11.3805 24.086C11.3737 25.769 10.6882 27.1972 9.41147 28.2959C9.13635 28.5324 9.15 28.6621 9.35122 28.9273C10.6375 30.6513 12.3843 31.9689 14.3864 32.725C14.6229 32.8169 14.7377 32.787 14.8946 32.5678C16.5669 30.2292 19.8479 30.22 21.5202 32.5517C21.6874 32.7813 21.8135 32.8157 22.0637 32.7227C23.8724 32.0523 25.8801 30.5839 26.7976 29.2189C26.6259 29.2097 26.4793 29.1971 26.3315 29.196C24.3609 29.196 22.3903 29.196 20.4198 29.196C19.4318 29.196 19.0328 28.7918 19.0271 27.785C19.0271 27.0124 19.018 26.2386 19.0271 25.4648C19.0396 24.5533 19.4432 24.1537 20.3322 24.1537H27.5229C27.9901 24.1641 28.2585 24.396 28.2653 24.792C28.2721 25.1881 28.0163 25.435 27.5468 25.4499C27.391 25.4499 27.2353 25.4499 27.0795 25.4499C24.9661 25.4499 22.8526 25.4556 20.7392 25.443C20.4357 25.443 20.3083 25.5004 20.3265 25.8391C20.3555 26.3828 20.3555 26.9278 20.3265 27.4716C20.3083 27.8091 20.4311 27.87 20.7358 27.8688C23.3028 27.8573 25.8699 27.8619 28.4369 27.8619C31.7338 27.8619 35.0183 27.8619 38.3083 27.87C38.6494 27.87 38.7313 27.7758 38.7301 27.4406C38.7301 26.3901 38.1412 25.3982 36.7622 25.4361C34.8295 25.4889 32.9048 25.4499 30.9756 25.4487C30.8346 25.4487 30.6913 25.4545 30.5515 25.4407C30.19 25.4051 29.9831 25.1973 29.9626 24.8322C29.9494 24.6666 30.0019 24.5025 30.1085 24.3759C30.215 24.2493 30.367 24.1706 30.531 24.1572C30.6162 24.152 30.7016 24.152 30.7868 24.1572C32.8718 24.1572 34.9561 24.1572 37.0396 24.1572C37.8066 24.1591 38.543 24.461 39.0942 24.9997C39.6454 25.5383 39.9684 26.2716 39.9955 27.0457C40.0057 27.3315 39.9955 27.6197 39.9955 27.9044C39.9955 28.7631 39.5725 29.1868 38.7097 29.1994C38.3982 29.1994 38.0855 29.1994 37.774 29.1994C36.0437 29.1994 34.3134 29.1994 32.5831 29.1925C32.467 29.1791 32.3498 29.2047 32.2495 29.2653C32.1492 29.3259 32.0715 29.4181 32.0283 29.5277C29.9683 33.4311 26.8453 36.0375 22.6594 37.3471C22.3467 37.4447 22.2569 37.5767 22.2808 37.8821C22.3047 38.1532 22.3047 38.426 22.2808 38.6972C22.2501 39.0278 22.3513 39.1357 22.6969 39.1311C24.2135 39.1116 25.7312 39.1231 27.2444 39.1231C29.3157 39.1231 31.3863 39.1231 33.4562 39.1231C34.4657 39.1231 34.9716 39.6397 34.9716 40.6546C34.9716 41.3274 34.9716 42.0001 34.9716 42.674C34.9648 43.4501 34.4271 44 33.6597 44C23.3627 44 13.0661 44 2.7699 44C1.9741 44 1.45 43.4547 1.44431 42.6465C1.43901 41.9301 1.43901 41.2137 1.44431 40.4973C1.44431 39.7224 1.95591 39.1495 2.72898 39.1323C4.09322 39.1036 5.45745 39.1151 6.81259 39.1323C7.24574 39.1323 7.50153 39.4078 7.50494 39.7878C7.50494 40.1862 7.2446 40.4491 6.77962 40.4537C5.5609 40.4663 4.34105 40.4686 3.12119 40.4537C2.81424 40.4537 2.6926 40.5145 2.71306 40.8521C2.74148 41.3526 2.74148 41.8543 2.71306 42.3549C2.69601 42.6717 2.81537 42.7636 3.09958 42.7199C3.14234 42.7165 3.1853 42.7165 3.22805 42.7199C13.212 42.7199 23.1964 42.7234 33.1811 42.7303C33.6165 42.7303 33.7416 42.6212 33.7063 42.1907C33.6807 41.7046 33.6807 41.2176 33.7063 40.7315C33.7063 40.526 33.6392 40.4434 33.438 40.4606C33.3107 40.4698 33.1822 40.4606 33.0549 40.4606H10.2493C10.0795 40.4685 9.9093 40.4596 9.74116 40.4342C9.41488 40.3676 9.20911 40.1632 9.20115 39.8142C9.19206 39.4423 9.40579 39.231 9.74572 39.1518C9.88575 39.128 10.028 39.1203 10.1698 39.1288C11.3748 39.1288 12.5799 39.1197 13.7861 39.1288C14.0601 39.1288 14.1624 39.0554 14.1442 38.7695C14.1181 38.3562 14.2511 37.8786 14.0863 37.5434C13.9214 37.2082 13.3905 37.2495 13.0256 37.114C9.32393 35.7364 6.49882 33.3255 4.56956 29.8549C4.51723 29.757 4.44534 29.6712 4.35845 29.6028C4.27156 29.5344 4.17158 29.485 4.0648 29.4577C1.75582 28.6747 0.339276 27.0663 0.0482385 24.6244C-0.229157 22.2928 0.697387 20.4318 2.63233 19.1138C2.75566 19.0376 2.86218 18.9366 2.94529 18.8172C3.0284 18.6977 3.08633 18.5623 3.1155 18.4192C3.64993 16.2325 4.65486 14.1915 6.05885 12.4414C6.23052 12.2255 6.23279 12.0878 6.10205 11.8536C5.62912 10.9983 5.59047 10.1085 6.02134 9.2257C6.13503 8.98346 6.11229 8.85947 5.90765 8.69645C5.33922 8.24412 4.78442 7.77801 4.23873 7.29698C4.05683 7.1374 3.95452 7.11674 3.75216 7.28894C2.89155 8.0191 1.78083 7.97777 1.02368 7.20743C0.266526 6.43709 0.227872 5.34645 0.923634 4.48197C1.94681 3.21912 2.99499 1.97579 4.02386 0.717529C4.3149 0.361634 4.71508 0.190576 5.10729 0L6.04521 0.00574023ZM7.04452 10.4621C7.03088 11.0293 7.29918 11.4254 7.70277 11.7617C8.68616 12.5803 9.66273 13.408 10.6427 14.2323C12.4617 15.7631 14.2784 17.2938 16.0928 18.8245C16.2781 18.9806 16.3771 19.0254 16.5589 18.8015C17.9459 17.1009 19.342 15.4079 20.7472 13.7226C20.8859 13.555 20.9836 13.439 20.7472 13.253C20.2413 12.8627 19.7626 12.4356 19.2692 12.0246C16.9349 10.0638 14.6043 8.10444 12.2775 6.14664C11.5192 5.51177 10.6166 5.57261 10.014 6.29014C9.14317 7.32338 8.28825 8.37614 7.4265 9.41972C7.1683 9.70289 7.03105 10.0774 7.04452 10.4621ZM10.0834 23.9345C10.081 23.3509 9.96473 22.7736 9.74125 22.2354C9.51777 21.6973 9.19144 21.2089 8.78093 20.7982C8.37042 20.3875 7.88377 20.0625 7.34882 19.8418C6.81386 19.6212 6.24108 19.5092 5.66322 19.5122C3.25307 19.5248 1.25559 21.5787 1.28856 23.9953C1.29655 25.173 1.76751 26.2993 2.59783 27.1264C3.42816 27.9535 4.54982 28.4136 5.71608 28.4055C6.88235 28.3975 7.99767 27.9219 8.8167 27.0834C9.63572 26.2449 10.0914 25.1122 10.0834 23.9345ZM18.2176 39.1242C19.0248 39.1242 19.8331 39.1151 20.6403 39.1242C20.8984 39.1242 20.9814 39.0485 20.9814 38.7798C20.97 37.4929 20.9814 36.2048 20.97 34.9167C20.9709 34.6881 20.9442 34.4602 20.8904 34.2382C20.5346 32.8513 19.3249 32.0075 17.8925 32.1349C16.6056 32.2498 15.529 33.3691 15.4755 34.7525C15.4232 36.1106 15.4607 37.4711 15.446 38.8303C15.446 39.1082 15.5881 39.1185 15.7938 39.1174C16.5999 39.1208 17.4071 39.1242 18.2154 39.1242H18.2176ZM30.7561 29.2028C29.9865 29.2028 29.2987 29.2028 28.6097 29.2028C28.4347 29.2028 28.3824 29.3406 28.2971 29.4554C27.8464 30.0985 27.3363 30.697 26.7737 31.2429C25.5545 32.4259 24.1098 33.3461 22.5275 33.9477C22.4002 33.9971 22.1739 33.9867 22.2194 34.2198C22.3331 34.8283 22.2592 35.4471 22.3115 36.1014C26.0075 34.9178 28.7882 32.6481 30.7539 29.2028H30.7561ZM14.2102 34.2898C14.2227 34.0602 14.2238 34.0602 13.926 33.9454C11.6101 33.0836 9.60753 31.5329 8.18252 29.4979C8.01199 29.2568 7.88125 29.243 7.63568 29.3452C7.23252 29.5217 6.80124 29.6235 6.3624 29.646C5.98837 29.6586 6.01337 29.7883 6.18277 30.0512C6.81301 31.038 7.55804 31.9449 8.40193 32.7526C9.9313 34.2092 11.7578 35.3103 13.7532 35.9786C14.0613 36.0842 14.1658 36.0463 14.1477 35.6882C14.1249 35.222 14.0988 34.7456 14.2102 34.2898ZM4.48885 18.332C5.1505 18.1839 5.76895 18.2172 6.38627 18.239C6.58636 18.2482 6.59773 18.0886 6.64548 17.9612C7.09505 16.728 7.73884 15.5762 8.552 14.5503C8.69184 14.3758 8.68956 14.2771 8.51676 14.1405C8.16092 13.8581 7.80621 13.5665 7.47652 13.2599C7.26734 13.0625 7.16162 13.1313 7.01496 13.3254C6.65062 13.7983 6.31245 14.2911 6.00201 14.8018C5.33778 15.9019 4.8285 17.09 4.48885 18.332ZM22.4809 15.9796C22.4884 15.8936 22.474 15.8071 22.4389 15.7283C22.4039 15.6495 22.3495 15.5811 22.2808 15.5296C22.0966 15.3735 21.8999 15.23 21.7328 15.0578C21.5441 14.8637 21.4372 14.9085 21.2781 15.106C20.3277 16.277 19.3647 17.4377 18.4018 18.5983C17.7993 19.3251 17.7959 19.3216 18.5337 19.9048C18.9236 20.2125 19.1555 20.1976 19.4705 19.8176C20.4141 18.6787 21.3558 17.5379 22.2956 16.3952C22.3956 16.2724 22.4934 16.1519 22.4809 15.9796ZM6.25099 2.00678C6.25574 1.86266 6.21395 1.72088 6.13192 1.60284C6.04989 1.4848 5.93207 1.3969 5.79624 1.3524C5.42221 1.21004 5.16868 1.39488 4.94813 1.66122C3.96285 2.84754 2.98211 4.03385 2.00592 5.22016C1.6785 5.61968 1.67396 6.05824 1.98319 6.32458C2.29241 6.59093 2.74489 6.52434 3.08936 6.10875C4.06251 4.93468 5.03454 3.75908 6.00542 2.58195C6.15513 2.42766 6.24267 2.22264 6.25099 2.00678ZM8.42012 6.15238C8.38449 6.10863 8.34654 6.06685 8.30644 6.02724C7.67434 5.4957 7.03883 4.96874 6.41242 4.43031C6.26235 4.30058 6.20323 4.38668 6.11683 4.49345C5.75645 4.93545 5.40288 5.38433 5.02089 5.80796C4.82535 6.02609 4.86514 6.13975 5.07773 6.30966C5.64617 6.76888 6.19641 7.23498 6.74211 7.71372C6.91832 7.86871 7.02519 7.88593 7.1798 7.68617C7.53905 7.22695 7.92104 6.78151 8.2928 6.33032C8.33259 6.27522 8.37806 6.21667 8.42012 6.15238ZM24.0077 19.9817C24.0138 19.8751 23.9967 19.7683 23.9574 19.6691C23.9181 19.5699 23.8576 19.4807 23.7803 19.4077C23.3949 19.0518 22.9845 18.7189 22.5946 18.3745C22.4468 18.2424 22.3672 18.3389 22.2876 18.4411C21.9977 18.7924 21.7112 19.1471 21.4168 19.4927C21.327 19.5983 21.3031 19.6718 21.4236 19.7693C21.8215 20.0897 22.2035 20.4306 22.6116 20.7372C22.9209 20.9668 23.2551 20.8956 23.5666 20.7142C23.8451 20.5558 24.0338 20.3411 24.0077 19.9817Z" fill="#01040B"/>
</svg>
