<svg width="40" height="48" viewBox="0 0 40 48" fill="none" xmlns="http://www.w3.org/2000/svg">
<path d="M20.9729 0C21.415 0.191468 21.8593 0.368206 22.2046 0.765869C22.858 1.51456 23.09 2.40807 22.8711 3.41696C22.6478 4.45285 22.0456 5.13526 21.1286 5.4016C20.8106 5.49611 20.7354 5.63847 20.7376 5.98704C20.7627 9.38682 20.7605 12.7854 20.7899 16.1852C20.7927 18.3745 21.4289 20.5032 22.6021 22.2483C24.5624 25.2013 26.5554 28.1273 28.5353 31.0632C28.6061 31.1675 28.6573 31.3001 28.7869 31.3504C28.8816 31.1945 28.8359 31.0214 28.8359 30.8594C28.8359 23.6786 28.8388 16.4973 28.8446 9.31563C28.8446 8.94743 28.7716 8.76824 28.4384 8.62095C27.37 8.1521 26.7819 6.79465 27.0226 5.49242C27.1258 4.87753 27.417 4.32289 27.8457 3.92505C28.2743 3.52721 28.8131 3.31137 29.3684 3.31509C32.1128 3.30773 34.8573 3.30773 37.6017 3.31509C38.1581 3.31106 38.6981 3.52751 39.1273 3.92662C39.5565 4.32573 39.8476 4.88212 39.9497 5.49856C40.1839 6.83883 39.5838 8.17297 38.4915 8.64427C38.2061 8.76701 38.1343 8.92043 38.1353 9.23709C38.1462 11.2733 38.143 13.3095 38.1353 15.3456C38.1353 15.9065 37.9644 16.195 37.6224 16.2576C37.1868 16.3386 36.8807 16.0121 36.8786 15.4254C36.8786 13.8016 36.8786 12.1791 36.8786 10.5565C36.8786 10.0962 36.8699 9.6372 36.8786 9.17817C36.8851 8.9327 36.8296 8.82592 36.5867 8.82715C34.5204 8.83697 32.4552 8.83697 30.391 8.82715C30.1645 8.82715 30.0785 8.89833 30.085 9.16344C30.1003 9.71494 30.1003 10.266 30.085 10.8167C30.0785 11.0622 30.1634 11.1272 30.3693 11.1223C30.9269 11.11 31.4834 11.1125 32.041 11.1223C32.4766 11.1284 32.7347 11.4083 32.726 11.8342C32.7173 12.2601 32.4733 12.4945 32.0486 12.5006C31.5041 12.508 30.9595 12.5129 30.415 12.5006C30.1809 12.4933 30.0687 12.5448 30.0807 12.848C30.1014 13.3831 30.1024 13.9207 30.0807 14.4546C30.0676 14.7577 30.1765 14.8105 30.4074 14.8031C30.9519 14.7872 31.4964 14.7921 32.041 14.8031C32.4711 14.8105 32.7325 15.0928 32.7216 15.5199C32.7107 15.947 32.4668 16.1766 32.0399 16.1815C31.4953 16.1888 30.9508 16.195 30.4063 16.1815C30.1656 16.1741 30.0654 16.2392 30.0796 16.5349C30.1003 17.0701 30.1014 17.6077 30.0796 18.1428C30.0665 18.4496 30.1885 18.4926 30.4139 18.4864C30.9432 18.4717 31.4736 18.4779 32.0029 18.4864C32.4472 18.4864 32.7129 18.7454 32.7216 19.1627C32.7314 19.6058 32.4733 19.8648 31.9963 19.8709C31.4518 19.8783 30.9073 19.8819 30.3627 19.8709C30.1525 19.8709 30.0741 19.9409 30.0785 20.1839C30.0894 20.8577 30.0905 21.534 30.0785 22.2053C30.0785 22.4422 30.1395 22.4925 30.3355 22.4398C31.6424 22.0863 32.8403 22.3465 34.0002 23.1283C34.8072 23.6745 35.7089 23.6401 36.603 23.3345C36.8296 23.2572 36.8742 23.1025 36.8731 22.8571C36.8633 21.572 36.8731 20.2858 36.8666 18.9995C36.8666 18.6951 36.9047 18.4177 37.1356 18.2213C37.2117 18.1566 37.3004 18.1131 37.3943 18.0944C37.4882 18.0758 37.5847 18.0824 37.6759 18.1139C37.7671 18.1454 37.8503 18.2009 37.9189 18.2756C37.9874 18.3504 38.0392 18.4424 38.07 18.5441C38.1147 18.7363 38.1338 18.9348 38.1266 19.1333C38.1266 26.6201 38.1266 34.107 38.1266 41.5939C38.1266 44.2339 36.7512 46.3045 34.5752 46.9059C33.068 47.322 31.6968 46.9415 30.5 45.8283C30.2985 45.6393 30.1907 45.6074 29.9718 45.8074C29.0895 46.6189 27.9827 47.0558 26.844 47.0421C19.6032 47.0618 12.3617 47.0618 5.11941 47.0421C2.49695 47.0421 0.436451 44.8943 0.0977537 41.9253C-0.288863 38.5083 0.474568 35.4461 2.33033 32.7201C3.45424 31.0681 4.5796 29.4165 5.70641 27.7653C5.89482 27.4867 6.10828 27.3136 6.43173 27.386C6.54579 27.4106 6.65079 27.4729 6.7334 27.5649C6.816 27.6569 6.87248 27.7745 6.89567 27.9027C6.96972 28.1899 6.83794 28.4059 6.69746 28.6158C6.37074 29.1068 6.04402 29.583 5.64216 30.166C6.18669 30.004 6.62231 29.8579 7.071 29.7413C9.55188 29.0994 12.0317 28.9239 14.506 29.7781C15.21 30.0112 15.8775 30.366 16.4848 30.83C16.7125 31.0067 16.8834 30.9895 17.11 30.8545C18.2731 30.1586 19.4656 29.529 20.7474 29.1694C22.3222 28.7275 23.4385 28.579 25.7059 29.2246C25.5415 28.9668 25.4097 28.7521 25.2703 28.5434C24.0386 26.7159 22.7872 24.9043 21.5773 23.0584C20.2513 21.0767 19.5258 18.667 19.5081 16.1852C19.4765 12.7866 19.4939 9.38682 19.5081 5.98704C19.5081 5.59674 19.4101 5.51206 19.0724 5.51574C17.0076 5.53293 14.9427 5.53293 12.8779 5.51574C12.5283 5.51574 12.4422 5.62866 12.4597 6.00668C12.4836 6.48047 12.4836 6.9554 12.4597 7.42919C12.4477 7.72744 12.5272 7.83422 12.8005 7.82317C13.3298 7.80108 13.8602 7.81213 14.3895 7.82317C14.8523 7.83054 15.0963 8.06864 15.1028 8.49822C15.1094 8.92779 14.8414 9.20395 14.3731 9.20763C13.8286 9.20763 13.2841 9.21745 12.7396 9.20763C12.5337 9.20763 12.4477 9.26532 12.4531 9.51447C12.4662 10.0643 12.464 10.6191 12.4531 11.1677C12.4455 11.4341 12.537 11.5089 12.7624 11.504C13.307 11.4893 13.8515 11.4942 14.396 11.504C14.8567 11.5101 15.1017 11.7495 15.1061 12.1803C15.1104 12.6111 14.8436 12.8836 14.3731 12.8872C13.8439 12.8872 13.3135 12.8995 12.7842 12.8872C12.5512 12.8872 12.4368 12.9327 12.4477 13.2346C12.4651 13.7697 12.4564 14.3073 12.4477 14.8424C12.4412 15.1014 12.5239 15.191 12.7548 15.1849C13.3113 15.1701 13.8689 15.1738 14.4265 15.1849C14.8741 15.1922 15.1192 15.4549 15.1104 15.8906C15.1017 16.2968 14.8469 16.5607 14.433 16.5681C13.8624 16.5767 13.2917 16.5804 12.721 16.5681C12.4913 16.5681 12.4226 16.6552 12.4041 16.9068C12.2233 19.3431 11.4926 21.5401 10.1454 23.4707C9.60089 24.2538 9.07596 25.054 8.54123 25.8457C8.32342 26.1697 8.05551 26.3366 7.69721 26.139C7.33891 25.9414 7.24416 25.4775 7.52405 25.0516C8.13175 24.1298 8.76449 23.2302 9.36674 22.3048C10.5451 20.4907 11.1942 18.457 11.2094 16.2036C11.2312 12.7891 11.2094 9.37455 11.2181 5.96004C11.2181 5.71457 11.1985 5.5452 10.9306 5.4691C9.7588 5.11194 9.04983 4.11901 9.02151 2.83888C8.99428 1.61152 9.68475 0.571949 10.813 0.138692C10.8582 0.114432 10.9003 0.0834743 10.9383 0.0466402L20.9729 0ZM15.985 45.6577H17.1263C20.1953 45.6577 23.265 45.6577 26.3354 45.6577C27.37 45.6577 28.3578 45.4552 29.2083 44.7151C29.4087 44.5408 29.4664 44.4009 29.3303 44.1161C29.0391 43.5251 28.8809 42.8626 28.8696 42.1867C28.8555 40.1972 28.8533 38.2076 28.8435 36.2181C28.8435 35.4227 28.9949 34.5648 28.7781 33.8505C28.5614 33.1362 27.9603 32.5372 27.5388 31.8867C27.3866 31.6532 27.1872 31.4639 26.9572 31.3344C24.8586 30.0862 22.6914 29.853 20.4327 30.7207C18.7958 31.3504 17.2973 32.3003 15.7726 33.2123C13.7262 34.4396 11.6603 35.6167 9.46149 36.4672C6.9966 37.4181 4.42265 37.9621 1.81956 38.0824C1.54838 38.0959 1.42859 38.1708 1.38393 38.512C1.22181 39.5523 1.20198 40.6144 1.32512 41.6614C1.58323 43.7172 2.66467 45.098 4.38212 45.5227C4.82133 45.6239 5.26905 45.6708 5.7173 45.6626C9.14058 45.6601 12.5649 45.6597 15.9904 45.6614L15.985 45.6577ZM30.0948 33.2577C30.0948 36.1371 30.085 39.0152 30.0948 41.8934C30.1035 43.8719 31.4485 45.4527 33.2585 45.6466C34.8518 45.8209 36.443 44.4892 36.7882 42.6666C36.9799 41.6528 36.8677 40.6206 36.8699 39.5982C36.8818 34.7907 36.8699 29.9831 36.884 25.1755C36.884 24.773 36.8165 24.7091 36.4647 24.7914C35.3245 25.0553 34.218 24.9264 33.2106 24.2182C32.3579 23.618 31.4529 23.5788 30.5065 23.812C30.2026 23.8868 30.0774 24.0464 30.0796 24.4379C30.1035 27.3786 30.0948 30.3182 30.0948 33.2577ZM15.4796 31.7714C14.9365 31.3932 14.3409 31.1206 13.7175 30.965C10.4242 30.1255 7.29208 30.7269 4.28083 32.3445C4.14529 32.4153 4.02743 32.5228 3.93778 32.6575C3.59581 33.1705 3.23534 33.6688 2.90862 34.1942C2.43762 34.9466 2.07452 35.7779 1.83263 36.6575C6.80636 36.5151 11.2149 34.5243 15.4796 31.7714ZM15.9904 4.12147C17.4704 4.12147 18.9505 4.13251 20.4305 4.12147C21.1711 4.1141 21.7003 3.52619 21.7058 2.76523C21.7087 2.58421 21.6793 2.40439 21.6193 2.23644C21.5594 2.06848 21.47 1.91584 21.3566 1.78759C21.2432 1.65935 21.1081 1.55811 20.9593 1.48991C20.8105 1.42171 20.651 1.38793 20.4904 1.3906C17.489 1.37423 14.4879 1.37423 11.4871 1.3906C11.2534 1.38337 11.0232 1.45576 10.8266 1.59831C10.63 1.74085 10.4761 1.94692 10.385 2.1896C9.99513 3.12976 10.6028 4.11533 11.5895 4.12514C13.0608 4.13251 14.5278 4.12147 15.9904 4.12147ZM33.4687 7.44514H37.4569C38.2443 7.44514 38.7365 6.92843 38.7441 6.09505C38.7518 5.26168 38.2682 4.70814 37.4884 4.70691C34.8159 4.70036 32.1433 4.70036 29.4708 4.70691C28.6965 4.70691 28.2086 5.26904 28.2216 6.10487C28.2336 6.90879 28.7324 7.44024 29.4806 7.44147C30.8136 7.44556 32.1444 7.44678 33.4731 7.44514H33.4687Z" fill="#01040B"/>
</svg>
