<svg width="40" height="50" viewBox="0 0 40 50" fill="none" xmlns="http://www.w3.org/2000/svg">
<path d="M2.57428 49.9927C2.05338 49.7861 1.47552 49.7005 1.02787 49.3399C0.0227115 48.5306 -0.138711 47.4976 0.0932491 46.3961C0.86012 42.8477 1.64824 39.3025 2.45762 35.7606C2.90933 33.8046 4.28346 32.5724 6.39823 32.0039C8.36243 31.4758 10.3321 30.9453 12.2963 30.4343C13.2797 30.18 14.0109 29.5578 14.8302 29.0688C15.2127 28.8402 14.9875 27.7803 14.5589 27.5492C12.3288 26.3426 10.7268 24.6654 9.86407 22.4429C9.48442 21.5117 9.28706 20.528 9.28078 19.5359C9.28078 19.1887 9.14513 19.0371 8.76124 18.9381C7.15651 18.5139 6.10794 17.2719 6.14321 15.9027C6.13849 15.5276 6.25134 15.159 6.46877 14.8391C6.74007 14.4614 6.77805 14.0617 6.77262 13.6338C6.75499 11.8954 6.71022 10.1522 7.34099 8.47127C7.49021 8.07152 7.64213 7.67177 7.82119 7.28303C8.04501 6.80259 8.4913 6.62044 8.94843 6.79404C9.35538 6.94929 9.54258 7.37104 9.34182 7.8307C8.99256 8.57596 8.74125 9.3555 8.59303 10.1534C8.44981 11.0708 8.39038 11.9973 8.41533 12.9235C8.41533 13.0226 8.38549 13.2353 8.5442 13.1778C9.11121 12.9737 9.7759 13.1252 10.2954 12.7634C10.9289 12.319 11.345 11.6695 11.4552 10.9529C11.519 10.6167 11.5163 10.2683 11.6058 9.93947C11.8771 8.91503 13.022 8.27934 14.2252 8.44316C15.777 8.65587 17.337 8.76344 18.9065 8.83679C21.2613 8.94682 23.5864 8.7011 25.9155 8.46394C27.2869 8.32335 28.2663 9.00183 28.4643 10.2304C28.5769 10.9211 28.6936 11.5898 29.1236 12.2108C29.6784 13.0115 30.6048 12.9761 31.4296 13.1815C31.6209 13.2291 31.6019 13.0653 31.6073 12.9565C31.7796 9.43092 30.6184 6.39184 27.5744 4.05447C25.3118 2.31855 22.6572 1.48727 19.7068 1.52761C16.5868 1.57284 13.882 2.6095 11.6926 4.65715C11.557 4.7794 11.4322 4.92732 11.2857 5.04834C10.9113 5.3564 10.4419 5.37841 10.1164 5.11435C9.75284 4.81974 9.72842 4.41021 10.0947 4.0288C10.7342 3.36539 11.4535 2.76802 12.2393 2.24765C20.0378 -2.91731 31.5544 1.31245 33.0832 9.91013C33.3178 11.2304 33.2921 12.5666 33.2839 13.9003C33.2735 14.1902 33.3509 14.4771 33.5077 14.7303C34.4654 16.2829 33.5349 18.2279 31.4852 18.8574C30.9087 19.0347 30.7581 19.2951 30.7391 19.778C30.6618 21.63 29.9714 23.2962 28.7858 24.7999C27.9106 25.9201 26.7798 26.8588 25.4692 27.5529C24.8262 27.8927 24.8492 28.7998 25.4203 29.2399C26.9789 30.4416 28.9472 30.7252 30.8043 31.2509C31.9532 31.5748 33.1279 31.8193 34.2525 32.2203C36.0159 32.8499 37.0753 34.0198 37.527 35.6542C37.6925 36.252 37.8146 36.8584 37.9516 37.4623C37.9758 37.5739 37.9899 37.6872 37.9937 37.8009C38.0127 38.263 37.7427 38.6016 37.2937 38.6359C36.804 38.6738 36.5002 38.4268 36.3903 38.0246C36.2465 37.4892 36.1434 36.9452 36.0349 36.4036C35.7202 34.823 34.7177 33.8254 32.9923 33.3902C31.2433 32.9493 29.502 32.4852 27.7684 31.9978C27.3967 31.8939 27.2652 31.9697 27.1485 32.2778C26.766 33.29 26.3129 34.2826 25.9738 35.3071C25.5845 36.4782 24.4247 36.9036 23.3178 36.3828C22.6219 36.0552 21.8256 35.8939 21.0972 35.6298C20.7106 35.4892 20.6495 35.5956 20.6523 35.9256C20.6658 37.6493 20.6523 39.373 20.6523 41.0979C20.6523 41.2434 20.6523 41.3901 20.6523 41.5368C20.6346 42.049 20.2955 42.3925 19.8167 42.3718C19.3378 42.351 19.0326 42.0319 19.0299 41.5417C19.0299 39.9965 19.0299 38.4513 19.0299 36.9061V35.5234C18.1631 35.834 17.3465 36.12 16.5367 36.4195C15.4203 36.8327 14.5942 36.532 14.1628 35.51C13.7314 34.488 13.3109 33.4428 12.9243 32.3976C12.7778 32.0015 12.6259 31.8744 12.1335 32.0137C10.3877 32.5113 8.6161 32.9416 6.86215 33.4208C5.37679 33.8364 4.37977 34.6738 4.06642 36.1102C3.29729 39.609 2.49967 43.1016 1.72375 46.5991C1.67463 46.8722 1.66279 47.1497 1.68849 47.4255C1.72511 47.9927 2.03846 48.3008 2.65702 48.4438C3.27558 48.5868 3.87787 48.5233 4.48829 48.5294C5.31846 48.5391 6.14999 48.5135 6.97881 48.5404C7.3627 48.5526 7.46036 48.4475 7.45765 48.1076C7.44002 46.0086 7.45765 43.9109 7.4468 41.8119C7.4468 41.3987 7.58245 41.0637 8.04366 40.9341C8.61067 40.7764 9.0773 41.1322 9.08273 41.7361C9.09494 43.1346 9.08273 44.5331 9.08273 45.9316C9.08273 46.6798 9.09358 47.4291 9.08273 48.1761C9.08273 48.4523 9.17361 48.5428 9.48968 48.5428C10.229 48.5257 10.9696 48.5428 11.7089 48.5343C12.166 48.5269 12.5798 48.5648 12.7778 49.0147C12.9759 49.4646 12.6598 49.7396 12.3275 50L2.57428 49.9927ZM29.1331 17.4491C29.1331 16.5934 29.0937 15.9198 29.1453 15.256C29.1968 14.5922 29.0462 14.1008 28.3938 13.6472C27.3357 12.9137 27.0101 11.7964 26.8582 10.6363C26.7728 9.97859 26.6276 9.8869 25.9209 9.95414C24.2551 10.1143 22.588 10.2708 20.9127 10.3282C18.6352 10.4065 16.3766 10.217 14.1207 9.96147C13.3787 9.87834 13.2336 10.0116 13.1712 10.673C13.0355 12.047 12.4482 13.2133 11.1636 14.0262C10.933 14.1717 10.8923 14.3343 10.8923 14.558C10.8995 15.9712 10.8995 17.3852 10.8923 18.8C10.8682 19.4826 10.9269 20.1655 11.0673 20.8366C12.2189 25.6409 17.5662 28.5162 22.763 27.0126C26.0362 26.0651 28.0967 23.9882 28.9106 20.943C29.2402 19.7217 29.0788 18.4846 29.1331 17.4491ZM16.6533 28.4025C16.6533 28.7974 16.6004 29.0993 16.8473 29.4001C17.7887 30.5467 18.7084 31.7093 19.62 32.8768C19.8262 33.1421 19.9292 33.1433 20.149 32.8829C21.1189 31.7325 22.0996 30.5908 23.1034 29.46C23.3924 29.136 23.4263 28.8182 23.33 28.4282C21.1554 29.0555 18.8166 29.0486 16.6465 28.4086L16.6533 28.4025ZM24.2036 35.0601C24.3935 35.0699 24.3799 34.8731 24.426 34.7594C24.7489 33.9697 25.0541 33.1702 25.3674 32.3829C25.8327 31.2093 25.83 31.2154 24.6892 30.559C24.464 30.4367 24.3487 30.4245 24.1778 30.6299C23.4507 31.4978 22.6951 32.3413 21.964 33.2105C21.7307 33.4868 21.2464 33.7741 21.3468 34.0504C21.4472 34.3266 22.025 34.3364 22.3872 34.4648C22.9597 34.6714 23.5552 34.8523 24.1968 35.0601H24.2036ZM18.4805 34.032C18.4603 33.9896 18.4363 33.9487 18.4086 33.9098C17.5287 32.8014 16.6474 31.693 15.7648 30.5846C15.7499 30.5552 15.7272 30.5296 15.6987 30.51C15.6701 30.4904 15.6367 30.4774 15.6013 30.4722C15.5659 30.4671 15.5297 30.4698 15.4957 30.4802C15.4618 30.4907 15.4312 30.5085 15.4067 30.5321C15.0852 30.7411 14.7556 30.9392 14.4219 31.1323C14.2483 31.2325 14.2496 31.3462 14.3134 31.5052C14.7637 32.6152 15.2114 33.7264 15.6468 34.8413C15.7241 35.0418 15.8042 35.0931 16.0334 35.0039C16.7618 34.7252 17.4984 34.466 18.2323 34.2007C18.3327 34.1653 18.4452 34.1543 18.4805 34.032ZM30.8151 16.0262C30.8151 16.4137 30.8246 16.8024 30.8151 17.19C30.807 17.4345 30.8626 17.509 31.142 17.3953C31.785 17.1325 32.2123 16.701 32.2272 16.0702C32.2435 15.4589 31.8555 15.0189 31.2438 14.7377C30.9399 14.5947 30.7893 14.5947 30.8097 14.9614C30.83 15.3281 30.8151 15.6704 30.8151 16.0262ZM9.22787 16.0616C9.22787 15.7034 9.20753 15.3453 9.22787 14.9883C9.25636 14.5837 9.07052 14.5971 8.75853 14.7438C8.17252 15.0262 7.79135 15.4589 7.79949 16.0543C7.79949 16.6252 8.16981 17.0494 8.74089 17.3257C9.07052 17.4846 9.26314 17.5151 9.22787 17.0812C9.20617 16.7462 9.22787 16.4027 9.22787 16.0616Z" fill="#01040B"/>
<path d="M15.4612 49.9937C15.4476 49.9668 15.4408 49.9265 15.4164 49.9118C15.0284 49.6844 14.9077 49.3543 15.0651 48.9815C15.2224 48.6086 15.6077 48.5231 16.0417 48.5255C17.8052 48.5377 19.5781 48.5255 21.3456 48.5255C24.3408 48.5255 27.3359 48.5108 30.331 48.539C30.8736 48.539 30.97 48.3959 30.9632 47.9448C30.9347 45.896 30.955 43.8471 30.9469 41.7994C30.9469 41.3838 31.0825 41.0513 31.5465 40.9266C32.1189 40.7738 32.5747 41.1307 32.576 41.7347C32.5842 43.6539 32.576 45.572 32.576 47.4901C32.576 48.5255 32.576 48.5451 33.725 48.5145C34.8956 48.4839 36.0704 48.6282 37.2342 48.4448C38.0034 48.3226 38.3194 47.9791 38.3194 47.2761C38.3127 46.1759 37.9233 45.138 37.7172 44.0708C37.5517 43.2151 37.3319 42.3593 37.1474 41.4963C37.0484 41.0342 37.3075 40.6405 37.747 40.5391C38.1865 40.4376 38.6328 40.6699 38.7427 41.1503C39.1944 43.1063 39.7641 45.0414 39.9811 47.0182C40.1249 48.336 39.4711 49.4363 37.8433 49.8653C37.7077 49.902 37.5517 49.8898 37.4431 49.9937H15.4612Z" fill="#01040B"/>
</svg>
