<svg width="40" height="42" viewBox="0 0 40 42" fill="none" xmlns="http://www.w3.org/2000/svg">
<path d="M39.9927 40.0519C39.9011 40.2899 39.7933 40.5207 39.6702 40.7426C39.5155 40.9844 39.311 41.1866 39.0719 41.3345C38.8327 41.4824 38.565 41.572 38.2884 41.5969C38.0118 41.6218 37.7334 41.5813 37.4737 41.4783C37.214 41.3754 36.9797 41.2126 36.7879 41.002C35.8473 40.0001 34.9189 38.9858 34.0027 37.959C33.8117 37.7401 33.6844 37.7488 33.4454 37.8813C30.5527 39.486 27.6964 39.4137 24.8882 37.635C24.4896 37.3821 24.4478 37.3898 24.3111 37.8649C24.02 38.8664 23.7236 39.868 23.446 40.874C23.3344 41.2746 23.1142 41.4508 22.7155 41.4486C20.9185 41.4388 19.1215 41.4355 17.3255 41.4486C16.8966 41.4486 16.6838 41.2439 16.5711 40.8411C16.2882 39.8374 15.9877 38.8369 15.7132 37.8298C15.6956 37.7319 15.6506 37.6417 15.5839 37.5707C15.5171 37.4997 15.4317 37.4512 15.3386 37.4314C14.6494 37.2358 13.9766 36.9817 13.3266 36.6717C13.2421 36.6242 13.1462 36.6037 13.0507 36.6127C12.9552 36.6216 12.8643 36.6596 12.7892 36.7221C11.9543 37.3055 11.1101 37.866 10.2847 38.4538C9.93089 38.7044 9.63555 38.7077 9.30161 38.41C7.9429 37.1993 6.57723 35.9971 5.2046 34.8032C4.89153 34.5274 4.81849 34.2297 4.98754 33.8301C5.38827 32.8855 5.76291 31.9277 6.15946 30.9841C6.25651 30.7521 6.26382 30.5726 6.11564 30.3471C5.70928 29.7463 5.35711 29.1073 5.06372 28.4381C5.02792 28.3442 4.96699 28.2633 4.88828 28.205C4.80958 28.1468 4.71647 28.1136 4.62021 28.1097C3.65179 27.9936 2.68441 27.8689 1.71599 27.7594C1.16603 27.6981 1.00324 27.5744 0.910364 27.0107C0.604601 25.1586 0.312396 23.3043 0.0149815 21.4511C-0.0507627 21.0461 0.100563 20.7801 0.455373 20.5984C1.34344 20.1442 2.21899 19.6647 3.10393 19.2072C3.18664 19.174 3.25823 19.116 3.30981 19.0405C3.36139 18.965 3.39067 18.8753 3.39403 18.7825C3.46696 17.9958 3.59957 17.2166 3.79058 16.452C3.84485 16.2452 3.75824 16.1477 3.6518 16.0284L1.59493 13.7297C1.21403 13.3028 1.19421 13.1452 1.46867 12.645C2.34456 11.0498 3.22114 9.45526 4.09843 7.86151C4.35619 7.39411 4.51585 7.32296 5.02198 7.44446C5.96953 7.67214 6.91918 7.89434 7.8636 8.14063C8.10466 8.20302 8.27267 8.18114 8.45424 7.98958C8.96059 7.45845 9.50982 6.97428 10.0958 6.5425C10.172 6.4942 10.2327 6.42299 10.2699 6.33809C10.3071 6.25318 10.3192 6.15851 10.3045 6.06634C10.2314 4.99143 10.1813 3.91433 10.1146 2.83833C10.0905 2.44208 10.2471 2.18812 10.6009 2.05349C12.2956 1.40766 13.9903 0.760384 15.6851 0.111643C16.0764 -0.0394139 16.3529 0.0689561 16.594 0.415949C17.1774 1.25442 17.7826 2.07428 18.3681 2.91385C18.5162 3.13277 18.6686 3.21269 18.9191 3.17985C19.6172 3.08789 20.3237 3.08789 21.0218 3.17985C21.1099 3.19709 21.201 3.18529 21.2824 3.1461C21.3639 3.1069 21.4318 3.04222 21.4768 2.96093C22.0685 2.1126 22.6738 1.27522 23.2749 0.434555C23.614 -0.0394125 23.756 -0.0864809 24.2652 0.106171C25.8869 0.723533 27.5082 1.34381 29.1292 1.96701C29.7209 2.1936 29.7909 2.28664 29.7637 2.95217C29.723 3.94717 29.6729 4.94327 29.603 5.93608C29.5821 6.23601 29.6834 6.40567 29.9088 6.56986C30.4559 6.96533 30.9657 7.41471 31.4313 7.91186C31.6265 8.12312 31.8154 8.13078 32.0575 8.07277C33.0415 7.82429 34.0298 7.5977 35.0128 7.34266C35.3624 7.25181 35.6014 7.3755 35.7673 7.67652C36.6877 9.33923 37.5998 11.0063 38.5171 12.6701C38.7102 13.0193 38.6475 13.3105 38.3908 13.594C37.7 14.3602 37.0248 15.133 36.3277 15.8927C36.2505 15.9613 36.1945 16.0525 36.1668 16.1547C36.1391 16.2568 36.141 16.3653 36.1722 16.4663C36.368 17.2154 36.497 17.982 36.5573 18.7562C36.5719 18.9631 36.694 19.0266 36.837 19.1021C37.6958 19.5531 38.5505 20.0139 39.4125 20.4561C39.6508 20.5637 39.8547 20.7408 40 20.9662V21.4577C39.977 21.4894 39.9405 21.5179 39.9343 21.5518C39.6671 23.2167 39.3927 24.8795 39.1401 26.5466C38.9898 27.5317 38.9784 27.5613 38.0141 27.6959C37.901 27.7265 37.7853 27.7452 37.6687 27.7517C37.3619 27.7266 37.3556 27.8612 37.4151 28.1305C37.9536 30.4292 37.6802 32.6184 36.55 34.6763C36.4269 34.8952 36.4655 35.0156 36.6251 35.1831C37.4224 36.0259 38.202 36.8874 39.0003 37.7302C39.402 38.1549 39.8028 38.5753 40 39.1532L39.9927 40.0519ZM21.3819 27.8054C21.337 27.8019 21.2921 27.8019 21.2472 27.8054C19.7371 28.0878 18.1804 27.836 16.8215 27.0895C16.6191 26.98 16.4375 26.8531 16.4041 26.5903C16.3784 26.4764 16.3856 26.3571 16.4246 26.2474C16.4636 26.1377 16.5327 26.0426 16.6232 25.9741C16.8799 25.7825 17.1356 25.8504 17.3934 25.9894C18.725 26.7053 20.116 26.8323 21.5593 26.4502C21.6844 26.4234 21.8023 26.3676 21.9043 26.2869C22.0063 26.2063 22.0899 26.1028 22.1489 25.9839C22.8586 24.6382 23.9106 23.5256 25.1877 22.7701C25.2786 22.7207 25.3579 22.6506 25.4198 22.565C25.4817 22.4795 25.5247 22.3805 25.5457 22.2754C25.7268 21.5491 25.7865 20.7955 25.722 20.0478C25.2983 15.6946 20.7192 13.2514 17.1314 15.4702C16.4564 15.8848 15.8695 16.4402 15.407 17.102C14.9445 17.7639 14.6163 18.5181 14.4425 19.3182C14.2688 20.1182 14.2532 20.9472 14.3967 21.7538C14.5402 22.5605 14.8398 23.3277 15.277 24.0082C15.5901 24.4974 15.5818 24.8422 15.2593 25.0809C14.9368 25.3195 14.6113 25.2057 14.2804 24.6857C13.7716 23.9067 13.417 23.0284 13.2377 22.1029C13.0585 21.1774 13.0582 20.2236 13.2369 19.298C13.5086 17.7765 14.2376 16.3862 15.3172 15.3308C16.3968 14.2753 17.7701 13.6102 19.2362 13.4328C20.7023 13.2553 22.184 13.5749 23.4643 14.3448C24.7447 15.1146 25.7564 16.2942 26.3513 17.7108C26.8819 18.9202 27.0675 20.2649 26.8856 21.5825C26.8511 21.8288 26.823 21.993 27.182 21.8857C28.1186 21.5878 29.104 21.4972 30.0758 21.6197C30.4045 21.6657 30.4932 21.5475 30.5099 21.2169C30.6173 19.1346 30.1507 17.0638 29.1658 15.2523C28.1118 13.2807 26.5028 11.6988 24.5591 10.7229C22.6153 9.74693 20.4315 9.42464 18.3065 9.80007C17.7048 9.90894 17.1118 10.0652 16.5324 10.2675C16.1651 10.3912 15.8468 10.2303 15.7341 9.8964C15.6214 9.56254 15.7873 9.23963 16.1515 9.08967C16.2361 9.05464 16.3237 9.02837 16.4103 8.99991C19.7414 7.925 22.9712 8.19756 25.9453 10.1088C30.0152 12.7227 31.9124 16.6108 31.6703 21.623C31.6588 21.8518 31.7173 21.9273 31.9124 21.9908C32.6462 22.2277 33.3419 22.5786 33.9766 23.0318C34.2093 23.1981 34.345 23.4247 34.2625 23.7301C34.2331 23.858 34.1648 23.9723 34.0681 24.056C33.9714 24.1397 33.8514 24.1882 33.7261 24.1942C33.5352 24.2139 33.3776 24.1099 33.2221 24.006C31.71 23.0033 30.0695 22.6585 28.2986 22.9113C24.3748 23.4729 21.5561 27.6456 22.3753 31.7011C23.2217 35.8957 26.9263 38.4549 30.9054 37.5945C34.6131 36.7932 37.1406 32.753 36.3684 28.8879C36.1597 27.8454 35.7584 26.8559 35.1871 25.9752C34.969 25.6369 35.0358 25.2724 35.3123 25.0721C35.5889 24.8718 35.9385 24.9451 36.1607 25.2746C36.335 25.5286 36.527 25.7869 36.6272 26.0748C36.7952 26.5553 37.102 26.6155 37.509 26.5126C37.5837 26.4892 37.6608 26.4749 37.7386 26.4699C37.9014 26.4699 37.9473 26.3868 37.9744 26.2215C38.2019 24.7426 38.4347 23.266 38.6841 21.7905C38.7237 21.5551 38.6695 21.4621 38.4754 21.3526C37.6228 20.9148 36.7837 20.4529 35.9291 20.0227C35.7729 19.9545 35.6394 19.8396 35.5452 19.6922C35.4511 19.5447 35.4006 19.3715 35.4 19.194C35.3433 18.2551 35.1847 17.326 34.9273 16.4247C34.7999 15.9868 34.8793 15.6497 35.1923 15.3191C35.8425 14.6306 36.4602 13.9082 37.0999 13.2087C37.245 13.05 37.293 12.9285 37.1751 12.7172C36.4648 11.4489 35.7631 10.1741 35.0702 8.89264C34.9659 8.69123 34.849 8.65073 34.6298 8.70765C33.699 8.95284 32.7598 9.16191 31.8289 9.4071C31.675 9.45955 31.5098 9.46345 31.3538 9.4183C31.1978 9.37316 31.0578 9.28096 30.9513 9.15315C30.2963 8.44899 29.5734 7.81804 28.7943 7.27042C28.4655 7.04164 28.3434 6.74938 28.3768 6.33452C28.4468 5.34937 28.476 4.37188 28.5438 3.3922C28.5615 3.13825 28.4875 3.03208 28.2662 2.95436C26.9715 2.46908 25.6792 1.97504 24.3894 1.47225C24.1536 1.3803 24.0325 1.42846 23.8843 1.6441C23.3229 2.46397 22.7364 3.26085 22.1604 4.07415C21.9516 4.36969 21.7043 4.4693 21.3547 4.43974C20.4337 4.35109 19.5066 4.35439 18.5862 4.4496C18.1854 4.49557 17.9162 4.37407 17.6856 4.04021C17.1356 3.24552 16.5648 2.46616 16.0159 1.67256C15.8719 1.46568 15.7456 1.41423 15.4941 1.51275C14.2196 2.01992 12.9395 2.50848 11.6538 2.97844C11.3668 3.0879 11.3157 3.22801 11.3345 3.50932C11.4002 4.50323 11.4388 5.49933 11.5004 6.49324C11.5199 6.64841 11.4961 6.80619 11.4318 6.94744C11.3675 7.08869 11.2656 7.20735 11.1383 7.28902C10.3601 7.83723 9.64103 8.47255 8.99377 9.1838C8.7047 9.51219 8.39373 9.55816 8.00657 9.45745C7.11328 9.2243 6.21164 9.01961 5.3194 8.78318C5.06477 8.71531 4.95102 8.78317 4.82788 9.01414C4.15582 10.2598 3.47334 11.5004 2.78041 12.7358C2.6531 12.9624 2.65519 13.1036 2.83364 13.2963C3.5036 14.022 4.1527 14.7696 4.8164 15.4986C4.93023 15.6103 5.01059 15.7544 5.04766 15.9132C5.08472 16.072 5.07688 16.2387 5.02511 16.3929C4.76926 17.3369 4.60699 18.306 4.5409 19.2849C4.53944 19.4679 4.4862 19.6464 4.38792 19.7976C4.28963 19.9488 4.15075 20.066 3.98886 20.1343C3.15402 20.5634 2.31917 21.01 1.48432 21.4533C1.36014 21.519 1.22864 21.554 1.26516 21.7708C1.51214 23.2594 1.75113 24.7496 1.9821 26.2412C2.01758 26.4754 2.11567 26.5433 2.3296 26.5695C3.29802 26.679 4.26227 26.8301 5.23173 26.9351C5.38095 26.9414 5.52525 26.993 5.64712 27.0835C5.76899 27.174 5.86323 27.2997 5.9184 27.4452C6.31546 28.3653 6.7993 29.2413 7.36269 30.0603C7.4609 30.1867 7.52156 30.3406 7.53714 30.5029C7.55273 30.6652 7.52254 30.8287 7.45034 30.9732C7.05796 31.8927 6.70003 32.834 6.31078 33.7491C6.21373 33.9779 6.24191 34.0983 6.42871 34.2603C7.49314 35.1798 8.54887 36.1109 9.59591 37.0538C9.79627 37.2355 9.92984 37.2125 10.1313 37.0702C10.9181 36.5141 11.7227 35.9843 12.5085 35.4283C12.6357 35.3231 12.7897 35.2596 12.9511 35.2456C13.1126 35.2316 13.2744 35.2677 13.4164 35.3494C14.2709 35.7802 15.1645 36.1198 16.0837 36.3631C16.2357 36.395 16.3756 36.4724 16.4867 36.5858C16.5978 36.6992 16.6753 36.8438 16.7098 37.0023C16.9791 37.9678 17.2765 38.9255 17.5353 39.8954C17.6073 40.1646 17.7231 40.2238 17.9684 40.2238C19.325 40.2128 20.6816 40.2073 22.0299 40.2238C22.32 40.2238 22.4254 40.1231 22.5016 39.8472C22.7719 38.8533 23.0411 37.8561 23.3688 36.8819C23.4732 36.5535 23.4398 36.3992 23.2269 36.1617C22.4569 35.3054 21.8749 34.2829 21.5217 33.1657C21.433 32.8866 21.313 32.8088 21.0448 32.8483C19.9062 33.0065 18.7494 32.9393 17.6344 32.6501C13.3131 31.5763 10.3066 28.8584 8.93429 24.4263C7.57766 20.0478 8.45424 16.0284 11.2979 12.5081C11.9284 11.7422 12.6559 11.0704 13.4602 10.5116C13.7733 10.2926 14.1281 10.343 14.3264 10.6287C14.5246 10.9144 14.4631 11.2669 14.1552 11.5241C14.0947 11.5755 14.0269 11.6182 13.9642 11.6675C10.5581 14.3745 9.08978 17.9528 9.67731 22.3947C10.4161 27.9849 15.5066 32.1466 20.8841 31.6201C21.0928 31.5993 21.1304 31.5358 21.1064 31.3256C21.0432 30.7144 21.0359 30.0983 21.0844 29.4856C21.1283 28.923 21.266 28.3735 21.3819 27.8054ZM38.8208 39.6381C38.8113 39.4322 38.7295 39.2373 38.5912 39.0908C38.3731 38.8566 38.1633 38.6136 37.939 38.3859C37.6906 38.1341 37.4694 37.647 37.1949 37.6843C36.8996 37.7237 36.6523 38.1473 36.383 38.4045C36.3642 38.422 36.3465 38.4428 36.3267 38.4614C36.2411 38.537 36.2338 38.6092 36.3183 38.7001C36.7817 39.197 37.2314 39.7082 37.7083 40.192C37.9118 40.3989 38.1884 40.3912 38.4388 40.2654C38.6893 40.1395 38.7874 39.9096 38.8208 39.6381ZM36.3695 36.6586C36.1493 36.4397 35.9656 36.2011 35.7308 36.05C35.5711 35.9471 35.5075 36.2131 35.3948 36.3039C35.2821 36.3948 35.1861 36.5535 35.0598 36.6411C34.7394 36.86 34.7728 37.0319 35.0337 37.3132C35.2946 37.5945 35.4845 37.6875 35.7454 37.334C35.8912 37.1613 36.0481 36.9992 36.215 36.8491C36.2588 36.8009 36.2954 36.7484 36.3695 36.6586Z" fill="#01040B"/>
<path d="M35.4594 30.3179C35.4487 32.008 34.8019 33.6252 33.66 34.8176C32.518 36.0099 30.9732 36.6808 29.3619 36.6842C26.0476 36.6776 23.2832 33.7857 23.2842 30.3278C23.2818 29.4805 23.44 28.6412 23.7495 27.8586C24.0589 27.076 24.5136 26.3657 25.0871 25.769C25.6605 25.1723 26.3413 24.7011 27.0898 24.3827C27.8384 24.0643 28.6398 23.9052 29.4475 23.9144C32.7587 23.9221 35.4636 26.8075 35.4594 30.3179ZM24.4874 30.2785C24.4426 33.0534 26.6121 35.363 29.317 35.4232C31.9844 35.4801 34.2218 33.2066 34.2792 30.3672C34.3407 27.5913 32.1315 25.2028 29.4569 25.1535C26.7415 25.0999 24.5333 27.3789 24.4874 30.2785Z" fill="#01040B"/>
</svg>
