<svg width="23" height="23" viewBox="0 0 23 23" fill="none" xmlns="http://www.w3.org/2000/svg">
<path d="M0 22.5L1.61432 16.5029C0.312412 14.1667 -0.101218 11.4406 0.449335 8.82477C0.999887 6.20895 2.47769 3.87889 4.61157 2.26217C6.74545 0.64545 9.39227 -0.149489 12.0663 0.0232253C14.7404 0.19594 17.2623 1.32472 19.1693 3.20244C21.0764 5.08016 22.2406 7.58086 22.4483 10.2457C22.6561 12.9105 21.8934 15.5606 20.3003 17.7098C18.7072 19.859 16.3905 21.3631 13.7754 21.946C11.1602 22.529 8.42203 22.1517 6.06325 20.8834L0 22.5ZM6.35561 18.6393L6.73059 18.8612C8.4391 19.8713 10.4346 20.2893 12.4062 20.05C14.3777 19.8108 16.2146 18.9277 17.6304 17.5385C19.0463 16.1492 19.9617 14.3318 20.2339 12.3695C20.5061 10.4071 20.1199 8.4101 19.1355 6.68956C18.151 4.96901 16.6236 3.62162 14.7913 2.85735C12.9589 2.09308 10.9246 1.95487 9.00528 2.46425C7.08597 2.97363 5.3895 4.102 4.18024 5.6735C2.97097 7.245 2.31685 9.17137 2.3198 11.1524C2.31819 12.795 2.77362 14.4058 3.63541 15.8056L3.87056 16.1923L2.96807 19.5395L6.35561 18.6393Z" fill="white"/>
<path fill-rule="evenodd" clip-rule="evenodd" d="M15.5033 12.6032C15.2835 12.4263 15.0261 12.3018 14.7508 12.2392C14.4754 12.1766 14.1894 12.1775 13.9144 12.2418C13.5013 12.413 13.2344 13.0596 12.9674 13.3829C12.9111 13.4604 12.8284 13.5148 12.7348 13.5358C12.6412 13.5568 12.5431 13.543 12.459 13.497C10.9466 12.9062 9.67883 11.8226 8.86171 10.4224C8.79202 10.335 8.75904 10.2241 8.7697 10.1129C8.78037 10.0018 8.83386 9.89908 8.91892 9.82648C9.21664 9.5325 9.43523 9.16838 9.55448 8.76779C9.58095 8.32594 9.47947 7.88582 9.26212 7.49991C9.09409 6.95887 8.77431 6.47712 8.34056 6.11157C8.11684 6.01121 7.86879 5.97756 7.62632 6.01468C7.38386 6.0518 7.15734 6.1581 6.9741 6.32077C6.65598 6.59453 6.40348 6.93599 6.23519 7.31999C6.0669 7.70398 5.98711 8.12074 6.00169 8.53957C6.00267 8.77477 6.03256 9.00897 6.09067 9.23691C6.23825 9.78458 6.46521 10.3078 6.76437 10.7901C6.9802 11.1595 7.21569 11.5171 7.46984 11.8614C8.29578 12.9924 9.334 13.9526 10.5269 14.6888C11.1255 15.0629 11.7653 15.3671 12.4336 15.5954C13.1278 15.9093 13.8943 16.0298 14.6517 15.944C15.0832 15.8789 15.492 15.7089 15.8423 15.4492C16.1925 15.1894 16.4733 14.8477 16.66 14.4543C16.7698 14.2166 16.8031 13.9509 16.7554 13.6935C16.641 13.1674 15.9355 12.8567 15.5033 12.6032Z" fill="white"/>
</svg>
