<svg width="81" height="81" viewBox="0 0 81 81" fill="none" xmlns="http://www.w3.org/2000/svg">
<circle cx="40.5" cy="40.5" r="34.5" fill="white"/>
<path d="M40.9047 42.9349C40.6684 42.9011 40.3647 42.9011 40.0947 42.9349C34.1547 42.7324 29.4297 37.8724 29.4297 31.8986C29.4297 25.7899 34.3572 20.8286 40.4997 20.8286C46.6084 20.8286 51.5697 25.7899 51.5697 31.8986C51.5359 37.8724 46.8447 42.7324 40.9047 42.9349Z" stroke="#020F23" stroke-width="2.7" stroke-linecap="round" stroke-linejoin="round"/>
<path d="M63.247 65.2099C57.2395 70.7111 49.2745 74.0524 40.4995 74.0524C31.7245 74.0524 23.7595 70.7111 17.752 65.2099C18.0895 62.0374 20.1145 58.9324 23.7257 56.5024C32.9732 50.3599 48.0932 50.3599 57.2732 56.5024C60.8845 58.9324 62.9095 62.0374 63.247 65.2099Z" stroke="#020F23" stroke-width="2.7" stroke-linecap="round" stroke-linejoin="round"/>
</svg>
