<svg width="160" height="82" viewBox="0 0 160 82" fill="none" xmlns="http://www.w3.org/2000/svg">
<path d="M159.606 24.4246C163.954 45.1291 131.838 69.3332 87.8712 78.4889C43.9047 87.6445 4.742 78.2788 0.394186 57.5757C-3.95362 36.8726 28.1629 12.6656 72.1294 3.51136C116.096 -5.64285 155.26 3.71998 159.606 24.4246Z" fill="white"/>
<path d="M63.7797 49.51C63.5584 48.0996 67.561 32.0273 67.561 32.0273L61.1905 34.0987C61.1905 34.0987 54.2948 27.8564 47.1527 37.0591C44.6078 40.3367 43.9822 44.4944 44.0943 46.8773C44.2788 50.7779 48.5528 57.9987 57.1791 50.8778C57.6054 51.8474 59.0306 54.5594 64.0276 53.6882C65.3809 53.4447 66.6774 52.9541 67.8516 52.2411L68.5539 50.4694C68.5539 50.4694 64.1353 51.7916 63.7797 49.5144M59.9763 36.9783C59.609 38.9748 58.4715 44.0375 57.4048 47.9395C57.3476 48.1571 57.2276 48.3533 57.0596 48.5036C56.7351 48.8045 56.3767 49.0668 55.9914 49.2852C55.2538 49.6819 54.0292 49.8479 52.7664 49.1662C50.5253 47.7412 50.453 43.5644 51.713 40.3205C54.6636 32.0934 58.5998 34.6291 59.7299 36.016C59.839 36.1487 59.9176 36.3037 59.9602 36.4699C60.0028 36.6362 60.0083 36.8097 59.9763 36.9783" fill="#18407A"/>
<path d="M112.254 49.51C111.897 47.2328 115.942 32.0508 115.942 32.0508L109.665 34.0987C109.665 34.0987 102.204 27.8975 95.059 37.0987C92.5126 40.3764 91.8885 44.534 92.0006 46.917C92.1865 50.8175 97.0256 57.9987 105.652 50.8836C106.08 51.8533 107.503 54.5653 112.5 53.6941C113.854 53.4506 115.15 52.96 116.324 52.247L117.027 50.4752C117.027 50.4752 112.61 51.7974 112.253 49.5203M108.451 36.9782C108.085 38.9748 106.797 44.6501 105.732 48.5521C105.673 48.7692 105.553 48.965 105.386 49.1163C105.062 49.4173 104.703 49.6791 104.317 49.8964C103.579 50.2945 102.355 50.4605 101.093 49.7788C98.8506 48.3538 98.9273 43.5644 100.187 40.3205C103.138 32.0934 107.076 34.6291 108.204 36.016C108.313 36.1487 108.392 36.3037 108.434 36.4699C108.477 36.6362 108.483 36.8097 108.451 36.9782" fill="#18407A"/>
<path d="M83.7866 34.5321H72.2702L72.9178 32.0273H92.9484C91.597 36.4699 87.4336 40.3676 83.642 43.9714C81.8628 45.6609 78.4651 49.8156 78.0697 51.3861H90.4359L89.8502 53.9013H70.1914C70.1914 50.8616 72.4383 47.6148 75.1426 44.6457C77.6079 41.9381 84.7795 34.5351 84.7795 34.5351" fill="#18407A"/>
<path d="M43.6413 62.8601C43.5589 62.8461 43.4755 62.8392 43.3919 62.8395C42.4271 62.7396 41.4253 62.5956 40.785 61.8919C40.6773 61.7523 40.5696 61.5981 40.4634 61.4335C39.472 59.6265 35.999 50.2607 35.1404 47.9938C44.885 46.2221 45.8882 27.9842 36.452 27.9842C33.6179 27.9842 20.4328 27.8593 20.4328 27.8593C20.4328 27.8593 19.521 29.5914 21.5555 29.6766C24.2111 29.6766 23.1002 33.8725 23.1002 33.8725L13.9531 73.526C15.8711 74.575 17.5161 75.5652 19.7527 76.4275C20.3207 73.1337 25.9756 50.0829 26.0789 49.0722C26.2264 47.5575 27.8168 47.4561 28.3819 48.7784C28.7788 49.6789 30.5816 54.4184 32.1986 58.5599C32.2901 58.7935 32.8079 60.1759 33.2682 61.3028C33.28 61.3321 33.2918 61.3659 33.3036 61.3939C33.3154 61.4218 33.5338 62.0226 33.6385 62.2504C34.419 63.8899 36.1466 65.1093 38.392 65.6176C39.5531 65.8262 40.2096 65.8747 41.6274 65.6279C42.9809 65.3847 44.2775 64.8941 45.4515 64.1808L46.1538 62.409C45.3323 62.6288 44.4931 62.7763 43.6457 62.8498M31.0847 45.1099C29.54 45.5242 26.9184 45.4375 26.9184 45.4375L30.2984 30.5272C30.2984 30.5272 33.8392 29.8353 35.282 32.0551C36.1967 33.4685 36.7367 35.083 36.1407 38.4723C35.4915 42.8989 32.6294 44.6986 31.0847 45.1099" fill="#18407A"/>
<path d="M136.461 35.6516C136.609 35.7985 137.554 37.3867 139.034 37.4366C142.016 37.5395 145.449 34.7922 143.826 31.6247C141.153 26.399 136.818 30.4039 136.818 30.4039L128.095 40.1913L133.308 17.7898H122.993C122.993 17.7898 122.081 19.5205 124.117 19.6072C126.773 19.6072 125.66 23.803 125.66 23.803L118.629 53.8924H125.209L126.88 45.9429C127.274 43.6746 128.89 43.9963 129.061 44.7941C129.144 45.1834 130.548 48.4787 131.104 50.0198C131.764 51.8474 132.769 53.1975 135.017 53.7059C136.177 53.9145 136.835 53.963 138.252 53.7162C139.606 53.4726 140.902 52.982 142.076 52.2691L142.779 50.4958C142.779 50.4958 140.281 51.298 138.953 50.4679C138.696 50.2814 138.473 50.0529 138.292 49.7921C138.056 49.4821 137.662 48.8269 137.214 47.7779C135.725 43.9581 133.427 38.0037 133.427 38.0037C133.427 38.0037 135.613 35.5238 135.787 35.443C135.961 35.3622 136.194 35.3563 136.47 35.6516" fill="#18407A"/>
</svg>
