<svg width="141" height="74" viewBox="0 0 141 74" fill="none" xmlns="http://www.w3.org/2000/svg">
<path d="M140.662 21.9945C138.515 11.4606 126.413 4.17175 109.241 1.32877L98.3018 44.6893C95.2655 57.2847 87.3691 59.2538 86.5803 59.4818L101.765 0.399135C90.3542 -0.574604 77.2706 0.207716 63.66 3.02823C24.9106 11.0595 -3.43961 32.5733 0.337617 51.0752C0.444169 51.597 0.577153 52.1114 0.731612 52.6182H50.9903C52.2598 52.6183 53.4954 52.2052 54.513 51.4403C55.5306 50.6755 56.2758 49.5999 56.6375 48.3737L64.1845 22.7752C64.2277 22.6281 64.3168 22.499 64.4388 22.4072C64.5607 22.3154 64.7088 22.2658 64.861 22.2658H70.3224C70.4318 22.2658 70.5397 22.2914 70.6376 22.3406C70.7356 22.3897 70.8208 22.4612 70.8866 22.5492C70.9525 22.6373 70.9971 22.7395 71.017 22.8479C71.0369 22.9563 71.0316 23.0679 71.0014 23.1738L63.3594 50.0207C62.5831 52.7468 60.9468 55.144 58.6979 56.8496C56.449 58.5551 53.71 59.4762 50.8953 59.4735L4.6286 59.4252C15.6654 71.9424 45.0192 76.7361 77.34 70.0406C116.089 62.0102 144.44 40.4989 140.662 21.9945ZM87.5896 29.439H79.9906L81.7251 22.2667H89.3242L87.5896 29.439ZM57.9194 15.021C57.9194 15.021 53.5657 15.0452 51.9724 18.3725C51.7194 18.8832 51.6494 19.4662 51.7741 20.0229C51.96 20.8002 52.4481 21.1714 52.9098 21.347C53.3214 21.5007 53.7701 21.5222 54.1943 21.4086C54.77 21.2655 55.3685 21.2417 55.9536 21.3387C56.5387 21.4357 57.0982 21.6514 57.598 21.9729C58.0979 22.2943 58.5277 22.7147 58.8614 23.2085C59.1952 23.7024 59.4259 24.2594 59.5395 24.8458C59.6532 25.4322 59.6474 26.0357 59.5225 26.6198C59.3977 27.2039 59.1564 27.7563 58.8133 28.2436C58.4701 28.7309 58.0323 29.1428 57.5264 29.4545C57.0205 29.7661 56.457 29.971 55.8702 30.0566C55.2087 30.1445 54.5361 30.0778 53.9043 29.8618C51.6296 29.0912 50.042 27.762 49.3094 25.3943C48.8138 23.7988 48.7502 22.0727 48.9203 20.419C49.1871 17.8249 50.2163 15.8225 51.8386 13.7943C54.931 9.92847 59.5764 7.98348 64.4406 7.78374L93.3376 7.95019L91.5709 14.6881L57.9194 15.021ZM86.4159 33.2366L82.8749 47.37C79.5453 58.2634 70.4232 59.362 68.6176 59.4727C68.5499 59.4806 68.4818 59.4848 68.4136 59.4851H68.3789H68.3029V59.4801C67.5099 59.4327 66.8838 58.8784 66.8838 58.201C66.8838 57.4919 67.5686 56.9168 68.4136 56.9168C68.4408 56.9168 68.4681 56.9168 68.4962 56.9168C72.9201 56.9168 74.2673 51.8767 74.2673 51.8767L79.5478 32.9686C79.5782 32.8597 79.6431 32.7638 79.7326 32.6955C79.822 32.6271 79.9312 32.5901 80.0434 32.59H85.9162C85.9946 32.5898 86.072 32.6076 86.1425 32.6421C86.2131 32.6766 86.2749 32.7269 86.3232 32.7891C86.3716 32.8513 86.4052 32.9238 86.4215 33.001C86.4379 33.0783 86.4365 33.1583 86.4175 33.235L86.4159 33.2366ZM113.463 47.1278C110.133 58.0212 101.011 59.1189 99.2046 59.2296C99.1372 59.2379 99.0693 59.2424 99.0014 59.243H98.9667H98.8907V59.238C98.0978 59.1897 97.4717 58.6362 97.4717 57.9588C97.4717 57.2489 98.1564 56.6746 99.0014 56.6746C99.0287 56.6746 99.0559 56.6746 99.084 56.6746C103.509 56.6746 104.856 51.6345 104.856 51.6345L110.242 32.3478H117.168L113.463 47.1278Z" fill="white"/>
</svg>
